<!DOCTYPE svg PUBLIC "-//W3C//DTD SVG 20010904//EN" "http://www.w3.org/TR/2001/REC-SVG-20010904/DTD/svg10.dtd">
<svg version="1.0" xmlns="http://www.w3.org/2000/svg" width="500px" height="500px" viewBox="0 0 5000 5000" preserveAspectRatio="xMidYMid meet">
<g id="layer101" fill="#000000" stroke="none">
 <path d="M0 2500 l0 -2500 2500 0 2500 0 0 2500 0 2500 -2500 0 -2500 0 0 -2500z"/>
 </g>
<g id="layer102" fill="#317a72" stroke="none">
 <path d="M0 2500 l0 -2500 2500 0 2500 0 0 2500 0 2500 -2500 0 -2500 0 0 -2500z m1370 -400 c6 -91 20 -228 31 -305 19 -139 20 -141 99 -303 76 -155 84 -168 163 -245 85 -84 207 -163 260 -169 26 -3 30 1 45 48 52 150 192 278 445 409 56 29 128 63 160 76 60 24 69 34 39 43 -11 4 -30 18 -43 33 l-24 26 30 -8 c75 -19 113 -23 158 -14 59 11 70 17 138 73 29 24 55 43 57 41 2 -1 -4 -19 -12 -40 -14 -34 -14 -36 2 -31 86 27 159 47 222 62 41 10 80 23 86 28 6 6 26 64 44 129 32 115 33 117 62 117 95 0 153 117 119 238 -9 30 -8 32 12 27 12 -3 54 -14 92 -24 l70 -17 -1 -270 c-4 -703 -130 -1188 -375 -1448 -106 -112 -183 -154 -369 -203 -144 -37 -147 -38 -340 -38 -177 0 -202 2 -270 23 -117 37 -189 79 -257 147 -60 62 -63 63 -135 75 -116 17 -187 38 -273 80 -323 155 -521 496 -599 1030 -23 154 -37 399 -30 510 l7 97 186 44 186 44 2 -60 c2 -33 7 -134 13 -225z m570 20 c24 0 29 -6 40 -44 15 -56 -3 -120 -43 -150 -22 -16 -30 -18 -52 -8 -24 11 -25 14 -11 28 32 31 13 74 -32 74 -23 0 -24 3 -17 37 11 63 23 76 57 69 17 -3 43 -6 58 -6z m800 -5 c6 -8 14 -32 17 -55 5 -38 4 -40 -20 -40 -46 0 -58 -67 -15 -83 8 -3 1 -9 -15 -16 -72 -28 -133 79 -97 173 7 20 17 26 52 29 24 2 48 4 54 5 6 1 17 -5 24 -13z m-919 -262 c13 -16 12 -17 -3 -4 -10 7 -18 15 -18 17 0 8 8 3 21 -13z m969 13 c0 -3 -5 -8 -12 -12 -7 -4 -8 -3 -4 4 7 12 16 16 16 8z m-933 -33 c-4 -3 -10 -3 -14 0 -3 4 0 7 7 7 7 0 10 -3 7 -7z m50 -9 c-3 -3 -12 -4 -19 -1 -8 3 -5 6 6 6 11 1 17 -2 13 -5z m800 0 c-3 -3 -12 -4 -19 -1 -8 3 -5 6 6 6 11 1 17 -2 13 -5z m-921 -112 c60 -30 106 -34 180 -17 37 8 69 14 71 11 9 -9 -69 -58 -113 -72 -111 -33 -232 42 -269 166 -7 22 -1 18 42 -22 28 -25 68 -55 89 -66z"/>
 <path d="M1890 2020 c0 -11 7 -20 15 -20 8 0 15 9 15 20 0 11 -7 20 -15 20 -8 0 -15 -9 -15 -20z"/>
 <path d="M2664 2029 c-10 -17 13 -36 27 -22 12 12 4 33 -11 33 -5 0 -12 -5 -16 -11z"/>
 </g>
<g id="layer103" fill="#19729b" stroke="none">
 <path d="M0 2500 l0 -2500 2500 0 2500 0 0 2500 0 2500 -2500 0 -2500 0 0 -2500z m2560 2252 l0 -178 -35 -34 c-132 -128 -270 -476 -335 -844 -32 -180 -50 -651 -32 -858 l8 -88 -58 0 -58 0 -2 1083 c-2 595 -2 1085 0 1090 2 4 118 7 258 7 l254 0 0 -178z m-1193 -2505 c3 -149 25 -400 48 -527 10 -57 32 -114 91 -234 72 -148 83 -165 159 -240 79 -79 179 -144 255 -166 28 -8 30 -7 41 33 43 165 251 340 572 482 48 21 87 42 87 46 0 5 -13 15 -30 24 -23 12 -61 56 -48 55 2 0 21 -7 43 -15 103 -37 222 -7 300 74 48 51 60 52 40 4 -8 -20 -14 -38 -12 -40 2 -2 31 4 63 12 138 37 244 65 248 65 2 0 20 58 41 129 l39 129 33 -5 c28 -5 38 0 71 33 32 32 40 49 45 89 3 28 2 70 -3 95 -4 25 -7 46 -6 48 2 1 44 -8 95 -20 l91 -22 0 -211 c0 -370 -33 -675 -100 -940 -61 -240 -131 -393 -241 -530 -106 -132 -211 -194 -409 -244 -374 -95 -684 -49 -861 128 -66 65 -71 69 -128 75 -378 43 -658 300 -801 736 -76 230 -113 486 -114 790 l-1 195 180 47 c99 25 187 47 195 47 13 1 15 -22 17 -142z m610 -154 c38 -91 -29 -210 -97 -173 -21 11 -21 12 -4 31 14 16 15 23 5 45 -9 21 -17 25 -36 21 -22 -4 -25 -1 -25 25 0 16 7 42 15 58 14 28 20 30 71 30 54 0 55 -1 71 -37z m772 19 c5 -10 11 -36 13 -58 3 -33 0 -39 -15 -36 -41 7 -66 -56 -30 -76 14 -9 14 -11 -6 -22 -56 -30 -111 27 -111 115 0 75 18 95 85 95 42 0 56 -4 64 -18z m-873 -278 l49 -14 -44 4 c-35 4 -51 12 -80 43 -29 30 -30 32 -5 10 18 -16 54 -35 80 -43z m918 35 c-28 -31 -68 -49 -106 -48 -29 1 -28 2 14 11 28 6 59 21 75 37 33 31 45 31 17 0z m-837 -35 c-3 -3 -12 -4 -19 -1 -8 3 -5 6 6 6 11 1 17 -2 13 -5z m690 -1 c-4 -3 -10 -3 -14 0 -3 4 0 7 7 7 7 0 10 -3 7 -7z m-847 -123 c38 -19 54 -22 115 -16 38 3 84 9 100 12 l30 7 -19 -22 c-11 -11 -43 -33 -73 -47 -45 -23 -61 -25 -107 -20 -87 11 -163 81 -191 175 -7 22 -1 19 46 -21 30 -25 74 -56 99 -68z"/>
 <path d="M1890 2026 c0 -9 7 -16 16 -16 17 0 14 22 -4 28 -7 2 -12 -3 -12 -12z"/>
 <path d="M2670 2020 c0 -13 5 -20 13 -17 6 2 12 10 12 17 0 7 -6 15 -12 18 -8 2 -13 -5 -13 -18z"/>
 </g>
<g id="layer104" fill="#1d7ca8" stroke="none">
 <path d="M1 2973 c1 -1116 5 -2041 9 -2058 4 -16 8 -26 9 -21 0 5 8 3 16 -4 13 -10 15 -9 16 11 0 22 1 23 9 4 5 -12 9 -15 9 -5 1 10 4 11 12 3 6 -6 28 -9 50 -6 36 5 39 4 40 -18 0 -22 1 -22 8 -4 7 16 17 20 57 20 27 0 52 -4 57 -10 5 -7 10 -7 15 0 11 15 33 17 48 4 8 -6 14 -7 14 -2 0 5 42 9 94 10 l95 2 4 -27 4 -27 2 28 c1 29 7 32 30 18 9 -6 14 -26 14 -55 -1 -25 3 -46 8 -46 5 0 9 7 9 15 0 18 -3 17 38 6 l32 -10 0 46 c0 36 4 46 20 50 11 3 20 10 20 17 0 7 3 6 9 -2 4 -7 7 -26 6 -42 -1 -16 2 -27 7 -24 4 3 8 14 8 24 0 23 16 35 23 18 4 -10 6 -10 6 0 1 6 10 12 21 12 24 0 26 -9 6 -24 -11 -8 -13 -20 -7 -46 l9 -35 1 32 c1 17 7 35 13 39 18 11 48 12 48 2 0 -23 20 6 21 30 l1 27 8 -29 c14 -45 60 -65 60 -26 0 11 5 20 11 20 6 0 8 -9 4 -22 -5 -18 -4 -20 4 -8 8 11 11 3 9 -33 -1 -47 11 -82 13 -36 3 48 6 65 18 87 13 24 41 30 41 10 0 -8 3 -9 8 -3 4 6 18 11 31 13 17 1 22 -2 17 -13 -6 -17 14 -21 30 -6 12 13 124 22 124 10 0 -5 4 -9 10 -9 5 0 -11 28 -36 63 -61 82 -145 258 -183 382 -75 247 -104 449 -105 750 l-1 220 180 47 c99 25 187 47 195 47 13 1 15 -22 17 -142 3 -149 25 -400 48 -527 10 -57 32 -114 91 -234 72 -148 83 -165 159 -240 79 -79 179 -144 255 -166 28 -8 30 -7 41 33 43 165 251 340 572 482 48 21 87 42 87 46 0 5 -13 15 -30 24 -23 12 -61 56 -48 55 2 0 21 -7 43 -15 103 -37 222 -7 300 74 48 51 60 52 40 4 -8 -20 -14 -38 -12 -40 2 -2 31 4 63 12 138 37 244 65 248 65 2 0 20 58 41 129 l39 129 33 -5 c28 -5 38 0 71 33 32 32 40 49 45 89 3 28 2 70 -3 95 -4 25 -7 46 -6 48 2 1 44 -7 94 -20 l90 -22 7 -55 c8 -75 -11 -535 -30 -696 -25 -216 -67 -414 -121 -570 -14 -40 -24 -76 -23 -81 1 -5 1 -18 0 -29 -1 -15 -4 -16 -10 -7 -5 9 -13 -1 -25 -32 -18 -48 -15 -66 11 -66 11 0 14 6 10 21 -4 15 -2 19 10 15 8 -3 19 -6 25 -6 6 0 8 -13 5 -34 -3 -21 0 -41 8 -53 13 -17 14 -17 21 1 4 10 2 27 -4 37 -8 12 -9 26 -2 41 8 21 9 21 10 3 0 -17 2 -17 10 -5 8 12 10 11 10 -7 0 -13 5 -23 10 -23 6 0 10 -7 10 -15 0 -9 -6 -12 -15 -9 -8 4 -15 1 -15 -7 0 -7 3 -9 8 -5 4 4 12 -16 18 -46 7 -30 12 -42 13 -27 0 14 6 30 12 36 8 8 8 13 0 17 -6 4 -11 0 -11 -10 0 -10 -2 -15 -5 -12 -11 11 8 88 21 88 16 0 19 -16 4 -25 -16 -10 -11 -28 6 -21 26 10 35 -4 18 -30 -9 -13 -12 -24 -8 -24 21 1 33 18 39 62 5 33 12 48 22 48 12 0 14 -8 10 -36 -5 -30 -4 -34 8 -24 8 7 15 19 15 27 0 7 7 16 15 19 8 4 12 10 9 16 -3 5 -11 4 -20 -3 -11 -9 -14 -8 -14 3 0 8 12 15 31 16 16 1 36 3 42 5 8 1 12 -13 12 -39 0 -52 22 -49 28 4 2 21 3 7 1 -30 -3 -70 0 -76 26 -57 11 8 12 12 3 16 -13 5 -18 69 -7 97 6 16 24 12 24 -5 0 -6 -4 -7 -10 -4 -6 4 -10 -5 -10 -19 0 -14 4 -26 10 -26 5 0 7 -7 4 -15 -5 -11 1 -15 25 -15 17 0 31 -4 31 -10 0 -5 10 -10 23 -10 12 0 28 -9 35 -20 7 -11 17 -20 23 -20 7 0 7 6 -2 16 -8 9 -12 27 -11 40 2 13 -1 24 -6 24 -6 0 -8 9 -5 20 3 11 10 20 15 20 5 0 8 -5 6 -12 -3 -7 6 -22 19 -34 23 -21 33 -51 13 -39 -12 8 -13 -5 0 -25 7 -11 11 -9 19 13 6 16 11 33 11 38 0 5 5 9 11 9 6 0 9 -7 5 -15 -3 -8 -1 -15 4 -15 6 0 10 5 10 11 0 6 7 8 16 5 13 -5 15 -2 11 15 -4 15 -2 19 8 15 8 -3 16 0 18 7 2 7 2 -9 0 -34 -4 -31 -1 -49 7 -54 10 -6 12 -1 7 23 -9 42 17 101 44 102 4 0 7 -11 7 -25 0 -15 -6 -25 -14 -25 -8 0 -14 -10 -14 -22 0 -16 3 -19 9 -10 4 7 12 12 17 11 22 -4 45 2 39 10 -3 5 0 13 6 16 5 4 8 13 5 21 -3 8 -2 14 3 14 8 0 19 -28 19 -47 1 -14 65 -33 77 -23 6 5 15 6 20 2 4 -4 5 2 3 13 -3 15 -10 19 -31 17 -19 -2 -27 2 -27 13 0 10 7 15 18 13 24 -4 42 10 35 27 -3 8 0 15 7 15 8 0 11 -9 8 -25 -3 -14 -2 -28 2 -30 4 -2 6 -17 4 -32 -2 -16 -1 -22 2 -15 3 6 11 9 16 6 6 -4 17 1 24 11 21 28 29 9 10 -21 -10 -14 -15 -28 -12 -31 3 -3 11 6 17 21 l12 26 18 -30 c10 -16 24 -30 31 -30 9 0 8 3 -2 10 -13 9 -13 11 0 20 8 5 24 10 35 10 15 0 16 -3 7 -12 -17 -17 -15 -33 3 -18 9 7 18 10 22 7 3 -4 13 -1 21 5 13 11 14 6 8 -32 -5 -33 -4 -41 4 -28 5 9 11 41 13 72 1 31 5 56 9 56 3 0 9 -22 13 -50 5 -39 11 -50 25 -50 10 0 21 6 23 13 3 6 6 2 6 -10 1 -13 5 -23 10 -23 5 0 8 11 7 24 -1 19 -6 23 -28 22 -16 -1 -28 3 -28 8 0 6 -3 22 -7 36 -6 22 -5 23 10 12 9 -8 13 -20 10 -28 -6 -16 2 -17 32 -4 11 5 14 9 8 9 -21 1 -14 27 7 28 19 2 20 -3 17 -70 -3 -49 -2 -59 3 -32 6 37 7 38 10 10 1 -19 4 -23 7 -12 6 23 33 22 33 -2 0 -14 5 -18 18 -14 14 3 18 11 15 28 -4 18 -11 23 -36 21 -29 -1 -32 2 -35 33 -2 20 2 37 10 42 22 14 34 9 15 -5 -12 -10 -15 -16 -7 -21 6 -4 9 -13 6 -21 -3 -8 -2 -14 3 -14 5 0 11 9 14 20 3 11 11 20 17 20 7 0 10 -7 6 -15 -3 -9 0 -15 10 -15 8 0 12 4 9 10 -3 5 -1 10 4 10 14 0 14 -16 1 -41 -8 -15 -7 -19 3 -19 8 0 17 9 20 20 7 26 27 26 34 0 7 -25 20 -26 26 -2 2 9 2 0 -1 -22 -5 -48 13 -41 22 9 4 19 11 35 16 35 12 0 9 -43 -4 -52 -6 -4 -7 -10 -3 -14 4 -4 14 1 21 12 9 12 11 21 4 25 -7 4 -6 9 2 14 7 4 16 2 20 -5 5 -8 9 -7 13 5 4 9 7 990 7 2180 l0 2165 -2500 0 -2500 0 1 -2027z m2560 1777 l-2 -175 -38 -40 c-89 -92 -152 -212 -224 -425 -84 -248 -125 -454 -136 -684 -11 -209 -12 -484 -3 -588 l8 -88 -58 0 -58 0 -2 1083 c-2 595 -2 1085 0 1090 2 4 118 6 259 5 l256 -3 -2 -175z m-584 -2657 c38 -91 -29 -210 -97 -173 -21 11 -21 12 -4 31 14 16 15 23 5 45 -9 21 -17 25 -36 21 -22 -4 -25 -1 -25 25 0 16 7 42 15 58 14 28 20 30 71 30 54 0 55 -1 71 -37z m772 19 c5 -10 11 -36 13 -58 3 -33 0 -39 -15 -36 -41 7 -66 -56 -30 -76 14 -9 14 -11 -6 -22 -56 -30 -111 27 -111 115 0 75 18 95 85 95 42 0 56 -4 64 -18z m-873 -278 l49 -14 -44 4 c-35 4 -51 12 -80 43 -29 30 -30 32 -5 10 18 -16 54 -35 80 -43z m918 35 c-28 -31 -68 -49 -106 -48 -29 1 -28 2 14 11 28 6 59 21 75 37 33 31 45 31 17 0z m-837 -35 c-3 -3 -12 -4 -19 -1 -8 3 -5 6 6 6 11 1 17 -2 13 -5z m690 -1 c-4 -3 -10 -3 -14 0 -3 4 0 7 7 7 7 0 10 -3 7 -7z m-847 -123 c38 -19 54 -22 115 -16 38 3 84 9 100 12 l30 7 -19 -22 c-11 -11 -43 -33 -73 -47 -45 -23 -61 -25 -107 -20 -87 11 -163 81 -191 175 -7 22 -1 19 46 -21 30 -25 74 -56 99 -68z m-1203 -707 c-4 -3 -7 0 -7 7 0 7 3 10 7 7 3 -4 3 -10 0 -14z m280 -10 c-4 -3 -7 0 -7 7 0 7 3 10 7 7 3 -4 3 -10 0 -14z m-610 -10 c-4 -3 -7 0 -7 7 0 7 3 10 7 7 3 -4 3 -10 0 -14z m153 -63 c0 -5 -4 -10 -10 -10 -5 0 -10 5 -10 10 0 6 5 10 10 10 6 0 10 -4 10 -10z m367 -7 c-4 -3 -7 0 -7 7 0 7 3 10 7 7 3 -4 3 -10 0 -14z m200 0 c-4 -3 -7 0 -7 7 0 7 3 10 7 7 3 -4 3 -10 0 -14z m-297 -26 c0 -18 -24 -67 -32 -67 -5 0 -8 7 -8 15 0 8 -7 15 -15 15 -25 0 -18 38 8 43 41 8 47 7 47 -6z m270 -2 c0 -8 -4 -15 -10 -15 -5 0 -7 7 -4 15 4 8 8 15 10 15 2 0 4 -7 4 -15z m2687 -2 c-4 -3 -7 0 -7 7 0 7 3 10 7 7 3 -4 3 -10 0 -14z m-2617 -3 c0 -5 -4 -10 -10 -10 -5 0 -10 5 -10 10 0 6 5 10 10 10 6 0 10 -4 10 -10z m3227 -7 c-4 -3 -7 0 -7 7 0 7 3 10 7 7 3 -4 3 -10 0 -14z m160 0 c-4 -3 -7 0 -7 7 0 7 3 10 7 7 3 -4 3 -10 0 -14z m-639 -18 c-3 -3 -9 2 -12 12 -6 14 -5 15 5 6 7 -7 10 -15 7 -18z m459 -2 c-4 -3 -7 0 -7 7 0 7 3 10 7 7 3 -4 3 -10 0 -14z m-690 1 c-3 -3 -12 -4 -19 -1 -8 3 -5 6 6 6 11 1 17 -2 13 -5z m100 -21 c-4 -3 -7 0 -7 7 0 7 3 10 7 7 3 -4 3 -10 0 -14z m147 -5 c-9 -30 -10 -31 -24 -23 -8 5 -6 13 7 25 24 25 26 24 17 -2z m313 0 c-3 -8 -6 -5 -6 6 -1 11 2 17 5 13 3 -3 4 -12 1 -19z m80 15 c-4 -3 -10 -3 -14 0 -3 4 0 7 7 7 7 0 10 -3 7 -7z m450 0 c-4 -3 -10 -3 -14 0 -3 4 0 7 7 7 7 0 10 -3 7 -7z m-1022 -13 c3 -5 4 -10 1 -10 -3 0 -8 5 -11 10 -3 6 -4 10 -1 10 3 0 8 -4 11 -10z m362 -17 c-4 -3 -7 0 -7 7 0 7 3 10 7 7 3 -4 3 -10 0 -14z m530 0 c-4 -3 -7 0 -7 7 0 7 3 10 7 7 3 -4 3 -10 0 -14z m130 0 c-4 -3 -7 0 -7 7 0 7 3 10 7 7 3 -4 3 -10 0 -14z m230 0 c-4 -3 -7 0 -7 7 0 7 3 10 7 7 3 -4 3 -10 0 -14z m-700 -10 c-4 -3 -7 0 -7 7 0 7 3 10 7 7 3 -4 3 -10 0 -14z m-574 -10 c-9 -25 -26 -34 -35 -20 -12 19 -9 30 7 23 8 -3 15 -1 15 4 0 6 4 10 10 10 5 0 6 -8 3 -17z m494 -5 c-3 -8 -6 -5 -6 6 -1 11 2 17 5 13 3 -3 4 -12 1 -19z m-427 2 c0 -5 -5 -10 -11 -10 -5 0 -7 5 -4 10 3 6 8 10 11 10 2 0 4 -4 4 -10z m479 3 c0 -5 -4 -17 -9 -28 l-9 -20 0 20 c-1 17 -3 17 -11 5 -11 -17 -13 -10 -4 14 6 16 35 23 33 9z m161 -3 c0 -5 -5 -10 -11 -10 -5 0 -7 5 -4 10 3 6 8 10 11 10 2 0 4 -4 4 -10z m117 -12 c-3 -8 -6 -5 -6 6 -1 11 2 17 5 13 3 -3 4 -12 1 -19z m50 5 c-4 -3 -7 0 -7 7 0 7 3 10 7 7 3 -4 3 -10 0 -14z m53 2 c0 -8 -4 -15 -10 -15 -5 0 -7 7 -4 15 4 8 8 15 10 15 2 0 4 -7 4 -15z m27 8 c-4 -3 -10 -3 -14 0 -3 4 0 7 7 7 7 0 10 -3 7 -7z m30 -25 c-3 -7 -5 -2 -5 12 0 14 2 19 5 13 2 -7 2 -19 0 -25z m43 22 c0 -5 -5 -10 -11 -10 -5 0 -7 5 -4 10 3 6 8 10 11 10 2 0 4 -4 4 -10z m17 -7 c-4 -3 -7 0 -7 7 0 7 3 10 7 7 3 -4 3 -10 0 -14z m252 -9 c3 -16 1 -17 -13 -5 -19 16 -21 34 -3 29 6 -3 14 -13 16 -24z m-959 6 c0 -5 -2 -10 -4 -10 -3 0 -8 5 -11 10 -3 6 -1 10 4 10 6 0 11 -4 11 -10z m863 3 c-7 -2 -13 -13 -13 -24 0 -10 -4 -19 -10 -19 -11 0 -13 11 -4 34 3 9 14 16 23 15 10 0 11 -2 4 -6z m43 -20 c-10 -10 -19 5 -10 18 6 11 8 11 12 0 2 -7 1 -15 -2 -18z m-907 -9 c7 5 11 -1 11 -15 0 -21 -1 -22 -20 -4 -11 10 -20 23 -20 29 0 6 4 5 9 -3 5 -7 14 -10 20 -7z m158 -1 c-4 -3 -7 0 -7 7 0 7 3 10 7 7 3 -4 3 -10 0 -14z m383 -35 c0 -4 -4 -8 -10 -8 -5 0 -10 6 -10 14 0 9 -9 13 -25 11 -29 -3 -32 3 -8 20 15 11 20 10 35 -8 10 -11 18 -24 18 -29z m150 37 c0 -8 -4 -15 -10 -15 -5 0 -10 7 -10 15 0 8 5 15 10 15 6 0 10 -7 10 -15z m-982 -14 c3 -8 -1 -12 -9 -9 -7 2 -15 10 -17 17 -3 8 1 12 9 9 7 -2 15 -10 17 -17z m382 9 c-20 -13 -33 -13 -25 0 3 6 14 10 23 10 15 0 15 -2 2 -10z m536 -11 c3 -31 6 -33 14 -9 8 24 8 24 9 -7 1 -37 -18 -55 -26 -24 -6 24 -43 29 -43 6 0 -8 -9 -19 -20 -25 -17 -9 -20 -8 -20 11 0 12 8 23 20 26 11 3 20 9 20 13 0 5 10 6 23 2 20 -5 21 -4 7 13 -13 16 -13 18 0 13 8 -2 16 -11 16 -19z m90 -6 c-10 -10 -19 5 -10 18 6 11 8 11 12 0 2 -7 1 -15 -2 -18z m58 12 c-4 -8 -10 -15 -15 -15 -4 0 -6 7 -3 15 4 8 10 15 15 15 4 0 6 -7 3 -15z m36 -1 c0 -8 -4 -12 -10 -9 -5 3 -10 10 -10 16 0 5 5 9 10 9 6 0 10 -7 10 -16z m230 12 c0 -9 -30 -14 -35 -6 -4 6 3 10 14 10 12 0 21 -2 21 -4z m-135 -27 c-8 -13 -45 -11 -45 2 0 5 4 8 9 4 5 -3 12 -1 16 5 4 6 11 8 16 4 5 -3 7 -10 4 -15z m-1325 -11 c0 -18 -2 -20 -9 -8 -6 8 -7 18 -5 22 9 14 14 9 14 -14z m402 2 c13 -11 16 -20 9 -20 -13 0 -41 24 -41 34 0 11 11 6 32 -14z m988 16 c0 -3 -4 -8 -10 -11 -5 -3 -10 -1 -10 4 0 6 5 11 10 11 6 0 10 -2 10 -4z m47 -20 c0 -8 -6 -12 -14 -9 -7 3 -13 11 -13 19 0 7 6 11 13 8 8 -3 14 -11 14 -18z m30 7 c-4 -3 -7 0 -7 7 0 7 3 10 7 7 3 -4 3 -10 0 -14z m-117 -23 c0 -5 -4 -10 -10 -10 -5 0 -10 5 -10 10 0 6 5 10 10 10 6 0 10 -4 10 -10z"/>
 <path d="M1890 2026 c0 -9 7 -16 16 -16 17 0 14 22 -4 28 -7 2 -12 -3 -12 -12z"/>
 <path d="M2670 2020 c0 -13 5 -20 13 -17 6 2 12 10 12 17 0 7 -6 15 -12 18 -8 2 -13 -5 -13 -18z"/>
 <path d="M320 860 c0 -7 3 -10 7 -7 3 4 3 10 0 14 -4 3 -7 0 -7 -7z"/>
 <path d="M486 855 c-9 -26 -7 -32 5 -12 6 10 9 21 6 23 -2 3 -7 -2 -11 -11z"/>
 <path d="M1213 863 c4 -3 10 -3 14 0 3 4 0 7 -7 7 -7 0 -10 -3 -7 -7z"/>
 <path d="M1276 832 c1 -15 3 -28 3 -30 2 -7 51 31 51 40 0 5 -4 6 -10 3 -5 -3 -18 -2 -28 4 -15 8 -17 5 -16 -17z"/>
 <path d="M42 830 c0 -14 2 -19 5 -12 2 6 2 18 0 25 -3 6 -5 1 -5 -13z"/>
 <path d="M116 833 c-4 -9 -2 -21 4 -27 7 -7 10 -2 10 17 0 31 -5 34 -14 10z"/>
 <path d="M423 815 c0 -22 2 -30 4 -17 2 12 2 30 0 40 -3 9 -5 -1 -4 -23z"/>
 <path d="M850 834 c0 -24 18 -34 58 -33 15 0 21 3 14 6 -6 2 -10 9 -6 14 11 18 -7 29 -27 16 -16 -10 -21 -9 -29 3 -8 12 -10 11 -10 -6z"/>
 <path d="M1071 834 c0 -11 3 -14 6 -6 3 7 2 16 -1 19 -3 4 -6 -2 -5 -13z"/>
 <path d="M520 830 c0 -7 3 -10 7 -7 3 4 3 10 0 14 -4 3 -7 0 -7 -7z"/>
 <path d="M552 810 c0 -19 2 -27 5 -17 2 9 2 25 0 35 -3 9 -5 1 -5 -18z"/>
 <path d="M720 830 c0 -5 5 -10 11 -10 5 0 7 5 4 10 -3 6 -8 10 -11 10 -2 0 -4 -4 -4 -10z"/>
 <path d="M950 824 c0 -8 5 -12 10 -9 6 4 8 11 5 16 -9 14 -15 11 -15 -7z"/>
 <path d="M776 821 c-4 -7 -5 -15 -2 -18 9 -9 19 4 14 18 -4 11 -6 11 -12 0z"/>
 <path d="M1200 820 c0 -7 3 -10 7 -7 3 4 3 10 0 14 -4 3 -7 0 -7 -7z"/>
 <path d="M1347 816 c-4 -10 -7 -25 -6 -34 0 -11 4 -9 10 7 5 13 8 29 6 35 -2 5 -6 2 -10 -8z"/>
 <path d="M171 804 c0 -11 3 -14 6 -6 3 7 2 16 -1 19 -3 4 -6 -2 -5 -13z"/>
 <path d="M450 810 c0 -7 3 -10 7 -7 3 4 3 10 0 14 -4 3 -7 0 -7 -7z"/>
 <path d="M1140 800 c0 -5 7 -10 16 -10 8 0 12 5 9 10 -3 6 -10 10 -16 10 -5 0 -9 -4 -9 -10z"/>
 <path d="M951 784 c0 -11 3 -14 6 -6 3 7 2 16 -1 19 -3 4 -6 -2 -5 -13z"/>
 <path d="M910 780 c0 -7 3 -10 7 -7 3 4 3 10 0 14 -4 3 -7 0 -7 -7z"/>
 <path d="M1080 780 c0 -7 3 -10 7 -7 3 4 3 10 0 14 -4 3 -7 0 -7 -7z"/>
 <path d="M3747 753 c-3 -16 -1 -35 4 -43 7 -12 8 -11 9 5 0 11 3 30 6 43 4 12 2 22 -4 22 -5 0 -12 -12 -15 -27z"/>
 <path d="M3377 731 l-14 -28 26 13 c14 8 32 14 39 14 17 0 15 17 -4 24 -26 10 -32 7 -47 -23z"/>
 <path d="M951 743 c0 -6 -4 -20 -7 -30 -5 -14 -4 -15 5 -7 7 7 11 20 8 30 -3 11 -5 14 -6 7z"/>
 <path d="M976 723 c-6 -14 -5 -15 5 -6 7 7 10 15 7 18 -3 3 -9 -2 -12 -12z"/>
 <path d="M3721 735 c1 -19 18 -51 18 -35 0 8 -4 22 -9 30 -5 8 -9 11 -9 5z"/>
 <path d="M894 718 c-4 -7 -3 -8 4 -4 12 7 16 16 8 16 -3 0 -8 -5 -12 -12z"/>
 <path d="M1010 714 c0 -8 5 -12 10 -9 6 4 8 11 5 16 -9 14 -15 11 -15 -7z"/>
 <path d="M431 704 c0 -11 3 -14 6 -6 3 7 2 16 -1 19 -3 4 -6 -2 -5 -13z"/>
 <path d="M3421 704 c0 -11 3 -14 6 -6 3 7 2 16 -1 19 -3 4 -6 -2 -5 -13z"/>
 <path d="M3464 684 c0 -30 2 -33 9 -16 5 12 5 26 0 36 -7 12 -9 7 -9 -20z"/>
 <path d="M3521 664 c0 -11 3 -14 6 -6 3 7 2 16 -1 19 -3 4 -6 -2 -5 -13z"/>
 <path d="M3660 671 c0 -3 9 -12 20 -19 16 -10 20 -10 20 2 0 7 -9 16 -20 19 -11 3 -20 2 -20 -2z"/>
 <path d="M4330 665 c0 -14 -43 -15 -57 -2 -11 12 -23 8 -23 -8 0 -11 11 -15 40 -15 33 0 38 -3 34 -17 -3 -10 4 -5 17 10 15 20 24 25 29 17 9 -14 30 -5 30 12 0 6 -3 9 -6 6 -3 -4 -19 -2 -35 2 -22 7 -29 5 -29 -5z"/>
 <path d="M3341 654 c0 -11 3 -14 6 -6 3 7 2 16 -1 19 -3 4 -6 -2 -5 -13z"/>
 <path d="M3501 654 c0 -11 3 -14 6 -6 3 7 2 16 -1 19 -3 4 -6 -2 -5 -13z"/>
 <path d="M3720 659 c0 -5 5 -7 10 -4 6 3 10 8 10 11 0 2 -4 4 -10 4 -5 0 -10 -5 -10 -11z"/>
 <path d="M4160 660 c0 -5 7 -7 15 -4 8 4 15 8 15 10 0 2 -7 4 -15 4 -8 0 -15 -4 -15 -10z"/>
 <path d="M4216 655 c-3 -8 -1 -15 3 -15 5 0 11 7 15 15 3 8 1 15 -3 15 -5 0 -11 -7 -15 -15z"/>
 <path d="M4440 650 c0 -7 3 -10 7 -7 3 4 3 10 0 14 -4 3 -7 0 -7 -7z"/>
 <path d="M3811 634 c0 -11 3 -14 6 -6 3 7 2 16 -1 19 -3 4 -6 -2 -5 -13z"/>
 <path d="M3871 634 c0 -11 3 -14 6 -6 3 7 2 16 -1 19 -3 4 -6 -2 -5 -13z"/>
 <path d="M4190 640 c0 -7 3 -10 7 -7 3 4 3 10 0 14 -4 3 -7 0 -7 -7z"/>
 <path d="M4850 626 c0 -14 5 -28 11 -31 16 -11 23 3 10 19 -7 8 -10 20 -6 26 3 5 1 10 -4 10 -6 0 -11 -11 -11 -24z"/>
 <path d="M3540 630 c0 -7 3 -10 7 -7 3 4 3 10 0 14 -4 3 -7 0 -7 -7z"/>
 <path d="M4162 615 c0 -16 2 -22 5 -12 2 9 2 23 0 30 -3 6 -5 -1 -5 -18z"/>
 <path d="M4420 630 c0 -7 3 -10 7 -7 3 4 3 10 0 14 -4 3 -7 0 -7 -7z"/>
 <path d="M4460 630 c0 -7 3 -10 7 -7 3 4 3 10 0 14 -4 3 -7 0 -7 -7z"/>
 <path d="M4110 620 c0 -7 3 -10 7 -7 3 4 3 10 0 14 -4 3 -7 0 -7 -7z"/>
 <path d="M4268 623 c7 -3 16 -2 19 1 4 3 -2 6 -13 5 -11 0 -14 -3 -6 -6z"/>
 <path d="M4481 604 c0 -11 3 -14 6 -6 3 7 2 16 -1 19 -3 4 -6 -2 -5 -13z"/>
 <path d="M4981 604 c0 -11 3 -14 6 -6 3 7 2 16 -1 19 -3 4 -6 -2 -5 -13z"/>
 <path d="M3560 600 c0 -7 3 -10 7 -7 3 4 3 10 0 14 -4 3 -7 0 -7 -7z"/>
 <path d="M3680 600 c0 -7 3 -10 7 -7 3 4 3 10 0 14 -4 3 -7 0 -7 -7z"/>
 <path d="M3990 600 c0 -7 3 -10 7 -7 3 4 3 10 0 14 -4 3 -7 0 -7 -7z"/>
 <path d="M4273 583 c4 -3 10 -3 14 0 3 4 0 7 -7 7 -7 0 -10 -3 -7 -7z"/>
 <path d="M4925 580 c-3 -5 -1 -10 4 -10 6 0 11 5 11 10 0 6 -2 10 -4 10 -3 0 -8 -4 -11 -10z"/>
 <path d="M4220 570 c0 -7 3 -10 7 -7 3 4 3 10 0 14 -4 3 -7 0 -7 -7z"/>
 <path d="M4240 560 c0 -7 3 -10 7 -7 3 4 3 10 0 14 -4 3 -7 0 -7 -7z"/>
 <path d="M3940 550 c0 -7 3 -10 7 -7 3 4 3 10 0 14 -4 3 -7 0 -7 -7z"/>
 <path d="M4123 543 c4 -3 10 -3 14 0 3 4 0 7 -7 7 -7 0 -10 -3 -7 -7z"/>
 <path d="M4868 543 c7 -3 16 -2 19 1 4 3 -2 6 -13 5 -11 0 -14 -3 -6 -6z"/>
 <path d="M4410 530 c0 -7 3 -10 7 -7 3 4 3 10 0 14 -4 3 -7 0 -7 -7z"/>
 <path d="M4580 470 c0 -7 3 -10 7 -7 3 4 3 10 0 14 -4 3 -7 0 -7 -7z"/>
 </g>
<g id="layer105" fill="#2082a7" stroke="none">
 <path d="M1320 4670 l-695 -228 -3 -269 -2 -270 -40 -12 c-120 -36 -172 -176 -116 -313 24 -58 97 -168 135 -202 21 -19 21 -22 21 -522 l0 -502 54 14 c54 14 54 14 173 -29 l119 -44 189 48 c105 27 195 49 200 49 6 0 11 -56 12 -143 3 -149 25 -400 48 -527 10 -57 32 -114 91 -234 72 -148 83 -165 159 -240 79 -79 179 -144 255 -166 28 -8 30 -7 41 33 43 165 251 340 571 482 49 21 88 42 88 46 0 5 -13 15 -30 24 -23 12 -61 56 -48 55 2 0 21 -7 43 -15 103 -37 222 -7 300 74 48 51 60 52 40 4 -8 -20 -14 -38 -12 -40 2 -2 31 4 63 12 138 37 244 65 248 65 2 0 20 58 41 129 l39 129 33 -5 c28 -5 38 0 71 33 32 32 40 49 45 89 3 28 2 70 -3 95 -4 25 -7 46 -5 48 1 2 45 -8 97 -21 l95 -24 118 43 c118 44 118 44 172 30 l53 -14 0 497 c0 495 0 498 21 517 65 58 153 215 165 290 15 100 -53 212 -143 237 l-43 11 -2 270 -3 270 -700 228 c-385 125 -703 228 -707 228 -5 0 -8 -73 -8 -163 l0 -163 -35 -34 c-132 -128 -270 -476 -335 -844 -32 -180 -50 -651 -32 -858 l8 -88 -58 0 -58 0 0 1075 c0 1018 -1 1075 -17 1074 -10 -1 -331 -104 -713 -229z m657 -2577 c38 -91 -29 -210 -97 -173 -21 11 -21 12 -4 31 14 16 15 23 5 45 -9 21 -17 25 -36 21 -22 -4 -25 -1 -25 25 0 16 7 42 15 58 14 28 20 30 71 30 54 0 55 -1 71 -37z m772 19 c5 -10 11 -36 13 -58 3 -33 0 -39 -15 -36 -41 7 -66 -56 -30 -76 14 -9 14 -11 -6 -22 -56 -30 -111 27 -111 115 0 75 18 95 85 95 42 0 56 -4 64 -18z m-873 -278 l49 -14 -44 4 c-35 4 -51 12 -80 43 -29 30 -30 32 -5 10 18 -16 54 -35 80 -43z m918 35 c-28 -31 -68 -49 -106 -48 -29 1 -28 2 14 11 28 6 59 21 75 37 33 31 45 31 17 0z m-837 -35 c-3 -3 -12 -4 -19 -1 -8 3 -5 6 6 6 11 1 17 -2 13 -5z m690 -1 c-4 -3 -10 -3 -14 0 -3 4 0 7 7 7 7 0 10 -3 7 -7z m-847 -123 c38 -19 54 -22 115 -16 38 3 84 9 100 12 l30 7 -19 -22 c-11 -11 -43 -33 -73 -47 -45 -23 -61 -25 -107 -20 -87 11 -163 81 -191 175 -7 22 -1 19 46 -21 30 -25 74 -56 99 -68z"/>
 <path d="M1890 2026 c0 -9 7 -16 16 -16 17 0 14 22 -4 28 -7 2 -12 -3 -12 -12z"/>
 <path d="M2670 2020 c0 -13 5 -20 13 -17 6 2 12 10 12 17 0 7 -6 15 -12 18 -8 2 -13 -5 -13 -18z"/>
 <path d="M3160 4770 c0 -7 3 -10 7 -7 3 4 3 10 0 14 -4 3 -7 0 -7 -7z"/>
 <path d="M4980 4640 c0 -7 3 -10 7 -7 3 4 3 10 0 14 -4 3 -7 0 -7 -7z"/>
 <path d="M4547 4163 c-10 -9 -9 -23 1 -23 5 0 9 7 9 15 0 17 -1 18 -10 8z"/>
 <path d="M4855 4149 c-4 -6 -5 -12 -2 -15 2 -3 7 2 10 11 7 17 1 20 -8 4z"/>
 <path d="M4690 4140 c0 -7 3 -10 7 -7 3 4 3 10 0 14 -4 3 -7 0 -7 -7z"/>
 <path d="M4653 4103 c4 -3 10 -3 14 0 3 4 0 7 -7 7 -7 0 -10 -3 -7 -7z"/>
 <path d="M4653 4053 c4 -3 10 -3 14 0 3 4 0 7 -7 7 -7 0 -10 -3 -7 -7z"/>
 <path d="M4980 3960 c0 -7 3 -10 7 -7 3 4 3 10 0 14 -4 3 -7 0 -7 -7z"/>
 <path d="M4460 3860 c0 -7 3 -10 7 -7 3 4 3 10 0 14 -4 3 -7 0 -7 -7z"/>
 <path d="M4283 3833 c4 -3 10 -3 14 0 3 4 0 7 -7 7 -7 0 -10 -3 -7 -7z"/>
 <path d="M4910 3759 c0 -5 5 -7 10 -4 6 3 10 8 10 11 0 2 -4 4 -10 4 -5 0 -10 -5 -10 -11z"/>
 <path d="M4660 3680 c0 -7 3 -10 7 -7 3 4 3 10 0 14 -4 3 -7 0 -7 -7z"/>
 <path d="M4890 3670 c0 -7 3 -10 7 -7 3 4 3 10 0 14 -4 3 -7 0 -7 -7z"/>
 <path d="M4844 3658 c-4 -7 -3 -8 4 -4 12 7 16 16 8 16 -3 0 -8 -5 -12 -12z"/>
 <path d="M4720 3650 c0 -7 3 -10 7 -7 3 4 3 10 0 14 -4 3 -7 0 -7 -7z"/>
 <path d="M4200 3640 c0 -7 3 -10 7 -7 3 4 3 10 0 14 -4 3 -7 0 -7 -7z"/>
 <path d="M4721 3594 c0 -11 3 -14 6 -6 3 7 2 16 -1 19 -3 4 -6 -2 -5 -13z"/>
 <path d="M4990 3580 c0 -7 3 -10 7 -7 3 4 3 10 0 14 -4 3 -7 0 -7 -7z"/>
 <path d="M4757 3551 c-4 -17 -3 -21 5 -13 5 5 8 16 6 23 -3 8 -7 3 -11 -10z"/>
 <path d="M4519 3503 c-13 -16 -12 -17 4 -4 9 7 17 15 17 17 0 8 -8 3 -21 -13z"/>
 <path d="M4930 3510 c0 -7 3 -10 7 -7 3 4 3 10 0 14 -4 3 -7 0 -7 -7z"/>
 <path d="M4460 3490 c0 -7 3 -10 7 -7 3 4 3 10 0 14 -4 3 -7 0 -7 -7z"/>
 <path d="M4653 3483 c4 -3 10 -3 14 0 3 4 0 7 -7 7 -7 0 -10 -3 -7 -7z"/>
 <path d="M4330 3429 c0 -5 5 -7 10 -4 6 3 10 8 10 11 0 2 -4 4 -10 4 -5 0 -10 -5 -10 -11z"/>
 <path d="M4906 3431 c-4 -7 -5 -15 -2 -18 9 -9 19 4 14 18 -4 11 -6 11 -12 0z"/>
 <path d="M4430 3410 c0 -7 3 -10 7 -7 3 4 3 10 0 14 -4 3 -7 0 -7 -7z"/>
 <path d="M4721 3364 c0 -11 3 -14 6 -6 3 7 2 16 -1 19 -3 4 -6 -2 -5 -13z"/>
 <path d="M4935 3350 c3 -5 8 -10 11 -10 3 0 2 5 -1 10 -3 6 -8 10 -11 10 -3 0 -2 -4 1 -10z"/>
 <path d="M4981 3344 c0 -11 3 -14 6 -6 3 7 2 16 -1 19 -3 4 -6 -2 -5 -13z"/>
 <path d="M4630 3330 c0 -7 3 -10 7 -7 3 4 3 10 0 14 -4 3 -7 0 -7 -7z"/>
 <path d="M4190 3300 c0 -7 3 -10 7 -7 3 4 3 10 0 14 -4 3 -7 0 -7 -7z"/>
 <path d="M4649 3248 c4 -28 6 -29 9 -9 2 13 0 27 -5 32 -6 6 -7 -3 -4 -23z"/>
 <path d="M4320 3250 c0 -7 3 -10 7 -7 3 4 3 10 0 14 -4 3 -7 0 -7 -7z"/>
 <path d="M4723 3145 c0 -22 2 -30 4 -17 2 12 2 30 0 40 -3 9 -5 -1 -4 -23z"/>
 <path d="M4662 3150 c-7 -11 -12 -25 -12 -32 0 -7 7 0 15 16 18 33 15 45 -3 16z"/>
 <path d="M4700 3110 c0 -7 3 -10 7 -7 3 4 3 10 0 14 -4 3 -7 0 -7 -7z"/>
 <path d="M4782 3104 c-20 -22 -10 -33 10 -12 10 9 14 19 10 22 -4 2 -13 -3 -20 -10z"/>
 <path d="M4003 3103 c4 -3 10 -3 14 0 3 4 0 7 -7 7 -7 0 -10 -3 -7 -7z"/>
 <path d="M4850 3100 c0 -5 5 -10 11 -10 5 0 7 5 4 10 -3 6 -8 10 -11 10 -2 0 -4 -4 -4 -10z"/>
 <path d="M4883 3103 c4 -3 10 -3 14 0 3 4 0 7 -7 7 -7 0 -10 -3 -7 -7z"/>
 <path d="M4721 3084 c0 -11 3 -14 6 -6 3 7 2 16 -1 19 -3 4 -6 -2 -5 -13z"/>
 <path d="M4665 3079 c-4 -6 -5 -12 -2 -15 2 -3 7 2 10 11 7 17 1 20 -8 4z"/>
 <path d="M4510 3070 c0 -7 3 -10 7 -7 3 4 3 10 0 14 -4 3 -7 0 -7 -7z"/>
 <path d="M4740 3060 c0 -7 3 -10 7 -7 3 4 3 10 0 14 -4 3 -7 0 -7 -7z"/>
 <path d="M4796 3051 c-10 -11 -16 -25 -14 -31 2 -6 11 3 21 20 21 34 18 39 -7 11z"/>
 <path d="M4881 3053 c0 -6 -4 -20 -7 -30 -5 -14 -4 -15 5 -7 7 7 11 20 8 30 -3 11 -5 14 -6 7z"/>
 <path d="M4460 3025 c0 -8 4 -15 10 -15 5 0 7 7 4 15 -4 8 -8 15 -10 15 -2 0 -4 -7 -4 -15z"/>
 <path d="M4540 2980 c0 -7 3 -10 7 -7 3 4 3 10 0 14 -4 3 -7 0 -7 -7z"/>
 <path d="M4591 2966 c-10 -12 -8 -13 8 -9 12 3 18 9 15 14 -7 12 -10 11 -23 -5z"/>
 <path d="M4800 2965 c-7 -9 -8 -15 -2 -15 5 0 12 7 16 15 3 8 4 15 2 15 -2 0 -9 -7 -16 -15z"/>
 <path d="M4710 2960 c0 -7 3 -10 7 -7 3 4 3 10 0 14 -4 3 -7 0 -7 -7z"/>
 <path d="M4845 2959 c-11 -16 -1 -19 13 -3 7 8 8 14 3 14 -5 0 -13 -5 -16 -11z"/>
 <path d="M4522 2940 c0 -14 2 -19 5 -12 2 6 2 18 0 25 -3 6 -5 1 -5 -13z"/>
 <path d="M4979 2916 c-3 -27 0 -42 6 -40 9 4 9 84 0 84 -2 0 -5 -20 -6 -44z"/>
 <path d="M4330 2940 c0 -7 3 -10 7 -7 3 4 3 10 0 14 -4 3 -7 0 -7 -7z"/>
 <path d="M4635 2940 c-3 -6 1 -7 9 -4 18 7 21 14 7 14 -6 0 -13 -4 -16 -10z"/>
 <path d="M4832 2910 c0 -14 2 -19 5 -12 2 6 2 18 0 25 -3 6 -5 1 -5 -13z"/>
 <path d="M4565 2910 c3 -5 8 -10 11 -10 2 0 4 5 4 10 0 6 -5 10 -11 10 -5 0 -7 -4 -4 -10z"/>
 <path d="M4720 2900 c0 -7 3 -10 7 -7 3 4 3 10 0 14 -4 3 -7 0 -7 -7z"/>
 <path d="M4550 2870 c0 -7 3 -10 7 -7 3 4 3 10 0 14 -4 3 -7 0 -7 -7z"/>
 <path d="M4400 2855 c0 -8 4 -15 10 -15 5 0 7 7 4 15 -4 8 -8 15 -10 15 -2 0 -4 -7 -4 -15z"/>
 <path d="M4461 2854 c0 -11 3 -14 6 -6 3 7 2 16 -1 19 -3 4 -6 -2 -5 -13z"/>
 <path d="M4592 2858 c-14 -14 -16 -28 -3 -28 5 0 11 9 14 20 6 23 5 24 -11 8z"/>
 <path d="M4332 2840 c0 -14 2 -19 5 -12 2 6 2 18 0 25 -3 6 -5 1 -5 -13z"/>
 <path d="M4970 2850 c0 -5 5 -10 11 -10 5 0 7 5 4 10 -3 6 -8 10 -11 10 -2 0 -4 -4 -4 -10z"/>
 <path d="M4434 2828 c-4 -7 -3 -8 4 -4 7 4 12 9 12 12 0 8 -9 4 -16 -8z"/>
 <path d="M4526 2824 c-5 -14 -4 -15 9 -4 17 14 19 20 6 20 -5 0 -12 -7 -15 -16z"/>
 <path d="M4851 2824 c0 -11 3 -14 6 -6 3 7 2 16 -1 19 -3 4 -6 -2 -5 -13z"/>
 <path d="M4974 2808 c-4 -7 -3 -8 4 -4 7 4 12 9 12 12 0 8 -9 4 -16 -8z"/>
 <path d="M4928 2798 c5 -5 16 -8 23 -6 8 3 3 7 -10 11 -17 4 -21 3 -13 -5z"/>
 <path d="M4631 2774 c0 -11 3 -14 6 -6 3 7 2 16 -1 19 -3 4 -6 -2 -5 -13z"/>
 <path d="M4650 2774 c0 -8 5 -12 10 -9 6 3 10 10 10 16 0 5 -4 9 -10 9 -5 0 -10 -7 -10 -16z"/>
 <path d="M4711 2774 c0 -11 3 -14 6 -6 3 7 2 16 -1 19 -3 4 -6 -2 -5 -13z"/>
 <path d="M4823 2775 c-3 -9 -3 -18 -1 -21 3 -3 8 4 11 16 6 23 -1 27 -10 5z"/>
 <path d="M4850 2770 c0 -5 5 -10 10 -10 6 0 10 5 10 10 0 6 -4 10 -10 10 -5 0 -10 -4 -10 -10z"/>
 <path d="M4460 2759 c0 -5 5 -7 10 -4 6 3 10 8 10 11 0 2 -4 4 -10 4 -5 0 -10 -5 -10 -11z"/>
 <path d="M4590 2760 c0 -7 3 -10 7 -7 3 4 3 10 0 14 -4 3 -7 0 -7 -7z"/>
 <path d="M4766 2755 c-9 -26 -7 -32 5 -12 6 10 9 21 6 23 -2 3 -7 -2 -11 -11z"/>
 <path d="M4067 2735 c-4 -8 -2 -17 3 -20 6 -4 10 3 10 14 0 25 -6 27 -13 6z"/>
 <path d="M4507 2743 c-4 -3 -7 -11 -7 -17 0 -6 5 -5 12 2 6 6 9 14 7 17 -3 3 -9 2 -12 -2z"/>
 <path d="M4720 2734 c0 -8 5 -12 10 -9 6 4 8 11 5 16 -9 14 -15 11 -15 -7z"/>
 <path d="M4927 2743 c-4 -3 -7 -13 -7 -22 1 -13 3 -13 11 2 11 19 8 33 -4 20z"/>
 <path d="M4981 2734 c0 -11 3 -14 6 -6 3 7 2 16 -1 19 -3 4 -6 -2 -5 -13z"/>
 <path d="M4590 2720 c0 -5 5 -10 10 -10 6 0 10 5 10 10 0 6 -4 10 -10 10 -5 0 -10 -4 -10 -10z"/>
 <path d="M4130 2700 c0 -7 3 -10 7 -7 3 4 3 10 0 14 -4 3 -7 0 -7 -7z"/>
 <path d="M4385 2700 c-3 -6 1 -7 9 -4 18 7 21 14 7 14 -6 0 -13 -4 -16 -10z"/>
 <path d="M4450 2690 c0 -7 3 -10 7 -7 3 4 3 10 0 14 -4 3 -7 0 -7 -7z"/>
 <path d="M4486 2675 c-9 -26 -7 -32 5 -12 6 10 9 21 6 23 -2 3 -7 -2 -11 -11z"/>
 <path d="M4655 2680 c4 -6 11 -8 16 -5 14 9 11 15 -7 15 -8 0 -12 -5 -9 -10z"/>
 <path d="M4985 2679 c-4 -6 -5 -12 -2 -15 2 -3 7 2 10 11 7 17 1 20 -8 4z"/>
 <path d="M4085 2670 c-3 -5 -1 -10 4 -10 6 0 11 5 11 10 0 6 -2 10 -4 10 -3 0 -8 -4 -11 -10z"/>
 <path d="M4410 2670 c0 -7 3 -10 7 -7 3 4 3 10 0 14 -4 3 -7 0 -7 -7z"/>
 <path d="M4201 2644 c0 -11 3 -14 6 -6 3 7 2 16 -1 19 -3 4 -6 -2 -5 -13z"/>
 <path d="M4530 2650 c-8 -5 -12 -12 -9 -15 4 -3 12 1 19 10 14 17 11 19 -10 5z"/>
 <path d="M4730 2650 c0 -5 5 -10 11 -10 5 0 7 5 4 10 -3 6 -8 10 -11 10 -2 0 -4 -4 -4 -10z"/>
 <path d="M4575 2640 c3 -5 8 -10 11 -10 2 0 4 5 4 10 0 6 -5 10 -11 10 -5 0 -7 -4 -4 -10z"/>
 <path d="M4783 2643 c4 -3 10 -3 14 0 3 4 0 7 -7 7 -7 0 -10 -3 -7 -7z"/>
 <path d="M4463 2633 c4 -3 10 -3 14 0 3 4 0 7 -7 7 -7 0 -10 -3 -7 -7z"/>
 <path d="M4630 2630 c0 -7 3 -10 7 -7 3 4 3 10 0 14 -4 3 -7 0 -7 -7z"/>
 <path d="M4850 2610 c0 -7 3 -10 7 -7 3 4 3 10 0 14 -4 3 -7 0 -7 -7z"/>
 <path d="M4065 2600 c-3 -5 -1 -10 4 -10 6 0 11 5 11 10 0 6 -2 10 -4 10 -3 0 -8 -4 -11 -10z"/>
 <path d="M4676 2597 c3 -10 9 -15 12 -12 3 3 0 11 -7 18 -10 9 -11 8 -5 -6z"/>
 <path d="M4200 2590 c0 -7 3 -10 7 -7 3 4 3 10 0 14 -4 3 -7 0 -7 -7z"/>
 <path d="M4460 2590 c0 -7 3 -10 7 -7 3 4 3 10 0 14 -4 3 -7 0 -7 -7z"/>
 <path d="M4520 2575 c-7 -9 -10 -18 -7 -21 3 -3 10 4 17 15 13 25 8 27 -10 6z"/>
 <path d="M4004 2568 c-4 -7 -3 -8 4 -4 12 7 16 16 8 16 -3 0 -8 -5 -12 -12z"/>
 <path d="M4585 2561 c-3 -5 -1 -12 5 -16 5 -3 10 1 10 9 0 18 -6 21 -15 7z"/>
 <path d="M4728 2545 c-3 -14 -1 -25 3 -25 5 0 9 11 9 25 0 14 -2 25 -4 25 -2 0 -6 -11 -8 -25z"/>
 <path d="M4620 2544 c0 -8 5 -12 10 -9 6 3 10 10 10 16 0 5 -4 9 -10 9 -5 0 -10 -7 -10 -16z"/>
 <path d="M4457 2543 c-4 -3 -7 -11 -7 -17 0 -6 5 -5 12 2 6 6 9 14 7 17 -3 3 -9 2 -12 -2z"/>
 <path d="M4650 2536 c0 -8 -3 -22 -7 -32 -4 -11 -3 -15 4 -11 15 9 23 46 12 53 -5 3 -9 -1 -9 -10z"/>
 <path d="M4130 2520 c0 -7 3 -10 7 -7 3 4 3 10 0 14 -4 3 -7 0 -7 -7z"/>
 <path d="M4200 2515 c0 -8 4 -15 10 -15 5 0 7 7 4 15 -4 8 -8 15 -10 15 -2 0 -4 -7 -4 -15z"/>
 <path d="M4580 2520 c0 -7 3 -10 7 -7 3 4 3 10 0 14 -4 3 -7 0 -7 -7z"/>
 <path d="M4850 2520 c0 -7 3 -10 7 -7 3 4 3 10 0 14 -4 3 -7 0 -7 -7z"/>
 <path d="M4275 2510 c-3 -5 -1 -10 4 -10 6 0 11 5 11 10 0 6 -2 10 -4 10 -3 0 -8 -4 -11 -10z"/>
 <path d="M4980 2480 c0 -7 3 -10 7 -7 3 4 3 10 0 14 -4 3 -7 0 -7 -7z"/>
 <path d="M4200 2470 c0 -7 3 -10 7 -7 3 4 3 10 0 14 -4 3 -7 0 -7 -7z"/>
 <path d="M4852 2460 c0 -14 2 -19 5 -12 2 6 2 18 0 25 -3 6 -5 1 -5 -13z"/>
 <path d="M4130 2460 c0 -7 3 -10 7 -7 3 4 3 10 0 14 -4 3 -7 0 -7 -7z"/>
 <path d="M4330 2450 c0 -7 3 -10 7 -7 3 4 3 10 0 14 -4 3 -7 0 -7 -7z"/>
 <path d="M4421 2444 c0 -11 3 -14 6 -6 3 7 2 16 -1 19 -3 4 -6 -2 -5 -13z"/>
 <path d="M4595 2450 c-3 -5 -1 -10 4 -10 6 0 11 5 11 10 0 6 -2 10 -4 10 -3 0 -8 -4 -11 -10z"/>
 <path d="M4727 2454 c-4 -4 -7 -14 -7 -23 0 -11 3 -12 11 -4 6 6 10 16 7 23 -2 6 -7 8 -11 4z"/>
 <path d="M4973 2443 c4 -3 10 -3 14 0 3 4 0 7 -7 7 -7 0 -10 -3 -7 -7z"/>
 <path d="M4780 2426 c0 -9 5 -16 10 -16 6 0 10 4 10 9 0 6 -4 13 -10 16 -5 3 -10 -1 -10 -9z"/>
 <path d="M4461 2414 c0 -11 3 -14 6 -6 3 7 2 16 -1 19 -3 4 -6 -2 -5 -13z"/>
 <path d="M4533 2423 c4 -3 10 -3 14 0 3 4 0 7 -7 7 -7 0 -10 -3 -7 -7z"/>
 <path d="M4641 2414 c0 -11 3 -14 6 -6 3 7 2 16 -1 19 -3 4 -6 -2 -5 -13z"/>
 <path d="M4920 2416 c-6 -8 -10 -25 -8 -36 2 -17 5 -14 14 14 12 40 12 42 -6 22z"/>
 <path d="M4395 2410 c3 -5 8 -10 11 -10 2 0 4 5 4 10 0 6 -5 10 -11 10 -5 0 -7 -4 -4 -10z"/>
 <path d="M4841 2404 c0 -11 3 -14 6 -6 3 7 2 16 -1 19 -3 4 -6 -2 -5 -13z"/>
 <path d="M4498 2403 c6 -2 12 -12 12 -21 0 -15 2 -15 10 -2 15 23 12 30 -12 29 -13 0 -17 -3 -10 -6z"/>
 <path d="M4802 2380 c0 -14 2 -19 5 -12 2 6 2 18 0 25 -3 6 -5 1 -5 -13z"/>
 <path d="M4240 2360 c0 -7 3 -10 7 -7 3 4 3 10 0 14 -4 3 -7 0 -7 -7z"/>
 <path d="M4461 2354 c0 -11 3 -14 6 -6 3 7 2 16 -1 19 -3 4 -6 -2 -5 -13z"/>
 <path d="M4721 2340 c0 -33 1 -34 10 -11 6 16 6 28 -1 35 -7 7 -10 -1 -9 -24z"/>
 <path d="M4890 2350 c0 -7 3 -10 7 -7 3 4 3 10 0 14 -4 3 -7 0 -7 -7z"/>
 <path d="M4410 2340 c0 -7 3 -10 7 -7 3 4 3 10 0 14 -4 3 -7 0 -7 -7z"/>
 <path d="M4670 2330 c0 -7 3 -10 7 -7 3 4 3 10 0 14 -4 3 -7 0 -7 -7z"/>
 <path d="M4850 2318 c0 -19 2 -20 10 -8 13 19 13 30 0 30 -5 0 -10 -10 -10 -22z"/>
 <path d="M4980 2330 c0 -5 5 -10 11 -10 5 0 7 5 4 10 -3 6 -8 10 -11 10 -2 0 -4 -4 -4 -10z"/>
 <path d="M4910 2310 c0 -7 3 -10 7 -7 3 4 3 10 0 14 -4 3 -7 0 -7 -7z"/>
 <path d="M3740 2300 c0 -7 3 -10 7 -7 3 4 3 10 0 14 -4 3 -7 0 -7 -7z"/>
 <path d="M3852 2290 c0 -14 2 -19 5 -12 2 6 2 18 0 25 -3 6 -5 1 -5 -13z"/>
 <path d="M4984 2285 c-3 -8 -4 -20 -2 -27 3 -7 7 -1 10 15 6 29 1 36 -8 12z"/>
 <path d="M4070 2280 c0 -7 3 -10 7 -7 3 4 3 10 0 14 -4 3 -7 0 -7 -7z"/>
 <path d="M4900 2265 c0 -8 4 -15 10 -15 5 0 7 7 4 15 -4 8 -8 15 -10 15 -2 0 -4 -7 -4 -15z"/>
 <path d="M3880 2260 c0 -7 3 -10 7 -7 3 4 3 10 0 14 -4 3 -7 0 -7 -7z"/>
 <path d="M4463 2263 c4 -3 10 -3 14 0 3 4 0 7 -7 7 -7 0 -10 -3 -7 -7z"/>
 <path d="M4930 2260 c0 -7 3 -10 7 -7 3 4 3 10 0 14 -4 3 -7 0 -7 -7z"/>
 <path d="M3770 2220 c0 -7 3 -10 7 -7 3 4 3 10 0 14 -4 3 -7 0 -7 -7z"/>
 <path d="M3810 2220 c0 -7 3 -10 7 -7 3 4 3 10 0 14 -4 3 -7 0 -7 -7z"/>
 <path d="M4413 2223 c4 -3 10 -3 14 0 3 4 0 7 -7 7 -7 0 -10 -3 -7 -7z"/>
 <path d="M4590 2189 c-6 -22 -10 -50 -7 -62 2 -13 7 -2 11 28 5 28 13 56 18 63 7 8 7 12 0 12 -6 0 -16 -18 -22 -41z"/>
 <path d="M4913 2223 c4 -3 10 -3 14 0 3 4 0 7 -7 7 -7 0 -10 -3 -7 -7z"/>
 <path d="M4690 2210 c0 -7 3 -10 7 -7 3 4 3 10 0 14 -4 3 -7 0 -7 -7z"/>
 <path d="M4719 2187 c-3 -21 -1 -41 4 -44 12 -7 13 -2 7 42 l-6 40 -5 -38z"/>
 <path d="M4890 2200 c0 -7 3 -10 7 -7 3 4 3 10 0 14 -4 3 -7 0 -7 -7z"/>
 <path d="M4550 2190 c0 -7 3 -10 7 -7 3 4 3 10 0 14 -4 3 -7 0 -7 -7z"/>
 <path d="M4330 2180 c0 -7 3 -10 7 -7 3 4 3 10 0 14 -4 3 -7 0 -7 -7z"/>
 <path d="M4380 2170 c0 -7 3 -10 7 -7 3 4 3 10 0 14 -4 3 -7 0 -7 -7z"/>
 <path d="M3811 2154 c0 -11 3 -14 6 -6 3 7 2 16 -1 19 -3 4 -6 -2 -5 -13z"/>
 <path d="M4460 2140 c0 -7 3 -10 7 -7 3 4 3 10 0 14 -4 3 -7 0 -7 -7z"/>
 <path d="M4320 2130 c0 -7 3 -10 7 -7 3 4 3 10 0 14 -4 3 -7 0 -7 -7z"/>
 <path d="M4650 2120 c0 -7 3 -10 7 -7 3 4 3 10 0 14 -4 3 -7 0 -7 -7z"/>
 <path d="M4848 2060 c2 -16 6 -30 8 -30 2 0 4 14 4 30 0 17 -4 30 -8 30 -5 0 -7 -13 -4 -30z"/>
 <path d="M4640 2070 c0 -7 3 -10 7 -7 3 4 3 10 0 14 -4 3 -7 0 -7 -7z"/>
 <path d="M4592 2050 c0 -14 2 -19 5 -12 2 6 2 18 0 25 -3 6 -5 1 -5 -13z"/>
 <path d="M4401 2034 c0 -11 3 -14 6 -6 3 7 2 16 -1 19 -3 4 -6 -2 -5 -13z"/>
 <path d="M3810 2030 c0 -7 3 -10 7 -7 3 4 3 10 0 14 -4 3 -7 0 -7 -7z"/>
 <path d="M4520 2032 c0 -5 7 -9 15 -9 8 0 15 4 15 9 0 4 -7 8 -15 8 -8 0 -15 -4 -15 -8z"/>
 <path d="M4630 2031 c0 -6 4 -13 10 -16 6 -3 7 1 4 9 -7 18 -14 21 -14 7z"/>
 <path d="M3680 2020 c0 -7 3 -10 7 -7 3 4 3 10 0 14 -4 3 -7 0 -7 -7z"/>
 <path d="M4904 2018 c-4 -7 -3 -8 4 -4 7 4 12 9 12 12 0 8 -9 4 -16 -8z"/>
 <path d="M4583 2013 c4 -3 10 -3 14 0 3 4 0 7 -7 7 -7 0 -10 -3 -7 -7z"/>
 <path d="M4970 1983 c0 -20 3 -33 7 -30 9 10 10 67 1 67 -5 0 -8 -16 -8 -37z"/>
 <path d="M4070 2000 c0 -7 3 -10 7 -7 3 4 3 10 0 14 -4 3 -7 0 -7 -7z"/>
 <path d="M4850 1991 c-7 -15 -7 -21 0 -21 12 0 25 28 17 36 -3 3 -10 -4 -17 -15z"/>
 <path d="M4925 2000 c-3 -5 -1 -10 4 -10 6 0 11 5 11 10 0 6 -2 10 -4 10 -3 0 -8 -4 -11 -10z"/>
 <path d="M4810 1990 c0 -7 3 -10 7 -7 3 4 3 10 0 14 -4 3 -7 0 -7 -7z"/>
 <path d="M4550 1980 c0 -7 3 -10 7 -7 3 4 3 10 0 14 -4 3 -7 0 -7 -7z"/>
 <path d="M4591 1974 c0 -11 3 -14 6 -6 3 7 2 16 -1 19 -3 4 -6 -2 -5 -13z"/>
 <path d="M4505 1969 c-4 -6 -5 -12 -2 -15 2 -3 7 2 10 11 7 17 1 20 -8 4z"/>
 <path d="M4943 1953 c4 -3 10 -3 14 0 3 4 0 7 -7 7 -7 0 -10 -3 -7 -7z"/>
 <path d="M4550 1940 c0 -7 3 -10 7 -7 3 4 3 10 0 14 -4 3 -7 0 -7 -7z"/>
 <path d="M4596 1935 c-3 -9 -6 -24 -5 -33 0 -9 5 -4 10 12 9 32 6 48 -5 21z"/>
 <path d="M4853 1910 c0 -25 2 -35 4 -22 2 12 2 32 0 45 -2 12 -4 2 -4 -23z"/>
 <path d="M4151 1924 c0 -11 3 -14 6 -6 3 7 2 16 -1 19 -3 4 -6 -2 -5 -13z"/>
 <path d="M4484 1928 c-4 -7 -3 -8 4 -4 12 7 16 16 8 16 -3 0 -8 -5 -12 -12z"/>
 <path d="M4070 1920 c0 -7 3 -10 7 -7 3 4 3 10 0 14 -4 3 -7 0 -7 -7z"/>
 <path d="M4650 1920 c0 -7 3 -10 7 -7 3 4 3 10 0 14 -4 3 -7 0 -7 -7z"/>
 <path d="M4730 1920 c0 -7 3 -10 7 -7 3 4 3 10 0 14 -4 3 -7 0 -7 -7z"/>
 <path d="M4450 1890 c0 -7 3 -10 7 -7 3 4 3 10 0 14 -4 3 -7 0 -7 -7z"/>
 <path d="M3991 1874 c0 -11 3 -14 6 -6 3 7 2 16 -1 19 -3 4 -6 -2 -5 -13z"/>
 <path d="M4280 1880 c0 -7 3 -10 7 -7 3 4 3 10 0 14 -4 3 -7 0 -7 -7z"/>
 <path d="M4323 1883 c4 -3 10 -3 14 0 3 4 0 7 -7 7 -7 0 -10 -3 -7 -7z"/>
 <path d="M3630 1870 c0 -7 3 -10 7 -7 3 4 3 10 0 14 -4 3 -7 0 -7 -7z"/>
 <path d="M4611 1864 c0 -11 3 -14 6 -6 3 7 2 16 -1 19 -3 4 -6 -2 -5 -13z"/>
 <path d="M4650 1860 c0 -7 3 -10 7 -7 3 4 3 10 0 14 -4 3 -7 0 -7 -7z"/>
 <path d="M4784 1858 c-4 -7 -3 -8 4 -4 12 7 16 16 8 16 -3 0 -8 -5 -12 -12z"/>
 <path d="M4917 1858 c4 -7 7 -24 6 -38 -2 -22 -1 -22 7 4 10 31 6 46 -11 46 -6 0 -7 -6 -2 -12z"/>
 <path d="M4975 1860 c-3 -5 -1 -10 4 -10 6 0 11 5 11 10 0 6 -2 10 -4 10 -3 0 -8 -4 -11 -10z"/>
 <path d="M4200 1840 c0 -7 3 -10 7 -7 3 4 3 10 0 14 -4 3 -7 0 -7 -7z"/>
 <path d="M4331 1834 c0 -11 3 -14 6 -6 3 7 2 16 -1 19 -3 4 -6 -2 -5 -13z"/>
 <path d="M4589 1823 c-13 -16 -12 -17 4 -4 16 13 21 21 13 21 -2 0 -10 -8 -17 -17z"/>
 <path d="M4630 1830 c0 -7 3 -10 7 -7 3 4 3 10 0 14 -4 3 -7 0 -7 -7z"/>
 <path d="M3740 1810 c0 -7 3 -10 7 -7 3 4 3 10 0 14 -4 3 -7 0 -7 -7z"/>
 <path d="M4370 1810 c0 -7 3 -10 7 -7 3 4 3 10 0 14 -4 3 -7 0 -7 -7z"/>
 <path d="M4520 1810 c0 -7 3 -10 7 -7 3 4 3 10 0 14 -4 3 -7 0 -7 -7z"/>
 <path d="M4721 1804 c0 -11 3 -14 6 -6 3 7 2 16 -1 19 -3 4 -6 -2 -5 -13z"/>
 <path d="M4780 1810 c0 -7 3 -10 7 -7 3 4 3 10 0 14 -4 3 -7 0 -7 -7z"/>
 <path d="M4820 1810 c0 -7 3 -10 7 -7 3 4 3 10 0 14 -4 3 -7 0 -7 -7z"/>
 <path d="M4241 1774 c0 -11 3 -14 6 -6 3 7 2 16 -1 19 -3 4 -6 -2 -5 -13z"/>
 <path d="M4330 1780 c0 -7 3 -10 7 -7 3 4 3 10 0 14 -4 3 -7 0 -7 -7z"/>
 <path d="M4196 1763 c-6 -14 -5 -15 5 -6 7 7 10 15 7 18 -3 3 -9 -2 -12 -12z"/>
 <path d="M4970 1769 c0 -6 -7 -9 -15 -5 -8 3 -15 1 -15 -4 0 -12 17 -12 44 -1 18 7 18 8 3 14 -10 4 -17 2 -17 -4z"/>
 <path d="M3924 1758 c-4 -7 -3 -8 4 -4 12 7 16 16 8 16 -3 0 -8 -5 -12 -12z"/>
 <path d="M4791 1733 c11 -50 19 -52 19 -6 0 27 -4 40 -14 40 -10 0 -11 -9 -5 -34z"/>
 <path d="M4880 1760 c0 -5 5 -10 11 -10 5 0 7 5 4 10 -3 6 -8 10 -11 10 -2 0 -4 -4 -4 -10z"/>
 <path d="M4023 1753 c4 -3 10 -3 14 0 3 4 0 7 -7 7 -7 0 -10 -3 -7 -7z"/>
 <path d="M4067 1748 c-2 -7 -1 -22 4 -33 6 -16 8 -14 8 13 1 33 -4 41 -12 20z"/>
 <path d="M4325 1750 c3 -5 8 -10 11 -10 2 0 4 5 4 10 0 6 -5 10 -11 10 -5 0 -7 -4 -4 -10z"/>
 <path d="M4462 1735 c0 -16 2 -22 5 -12 2 9 2 23 0 30 -3 6 -5 -1 -5 -18z"/>
 <path d="M4490 1749 c0 -5 5 -7 10 -4 6 3 10 8 10 11 0 2 -4 4 -10 4 -5 0 -10 -5 -10 -11z"/>
 <path d="M4553 1753 c4 -3 10 -3 14 0 3 4 0 7 -7 7 -7 0 -10 -3 -7 -7z"/>
 <path d="M4744 1745 c-3 -8 -4 -20 -2 -27 3 -7 7 -1 10 15 6 29 1 36 -8 12z"/>
 <path d="M3900 1740 c0 -7 3 -10 7 -7 3 4 3 10 0 14 -4 3 -7 0 -7 -7z"/>
 <path d="M4134 1738 c-4 -7 -3 -8 4 -4 7 4 12 9 12 12 0 8 -9 4 -16 -8z"/>
 <path d="M4260 1740 c0 -7 3 -10 7 -7 3 4 3 10 0 14 -4 3 -7 0 -7 -7z"/>
 <path d="M4980 1735 c-8 -9 -8 -15 -2 -15 12 0 26 19 19 26 -2 2 -10 -2 -17 -11z"/>
 <path d="M3942 1715 c0 -16 2 -22 5 -12 2 9 2 23 0 30 -3 6 -5 -1 -5 -18z"/>
 <path d="M4520 1730 c0 -7 3 -10 7 -7 3 4 3 10 0 14 -4 3 -7 0 -7 -7z"/>
 <path d="M4652 1695 c0 -16 2 -22 5 -12 2 9 2 23 0 30 -3 6 -5 -1 -5 -18z"/>
 <path d="M4436 1693 c-6 -14 -5 -15 5 -6 7 7 10 15 7 18 -3 3 -9 -2 -12 -12z"/>
 <path d="M4720 1700 c0 -7 3 -10 7 -7 3 4 3 10 0 14 -4 3 -7 0 -7 -7z"/>
 <path d="M4860 1700 c0 -5 4 -10 9 -10 6 0 13 5 16 10 3 6 -1 10 -9 10 -9 0 -16 -4 -16 -10z"/>
 <path d="M4980 1690 c0 -7 3 -10 7 -7 3 4 3 10 0 14 -4 3 -7 0 -7 -7z"/>
 <path d="M4085 1680 c-3 -5 -1 -10 4 -10 6 0 11 5 11 10 0 6 -2 10 -4 10 -3 0 -8 -4 -11 -10z"/>
 <path d="M4754 1678 c-4 -7 -3 -8 4 -4 12 7 16 16 8 16 -3 0 -8 -5 -12 -12z"/>
 <path d="M4718 1625 c-1 -31 0 -64 4 -73 4 -10 7 0 9 28 1 25 2 57 3 73 1 15 -1 27 -5 27 -4 0 -9 -25 -11 -55z"/>
 <path d="M4520 1612 c0 -33 4 -63 9 -66 8 -5 3 114 -5 123 -2 2 -4 -23 -4 -57z"/>
 <path d="M4547 1663 c-4 -3 -7 -13 -7 -22 1 -13 3 -13 11 2 11 19 8 33 -4 20z"/>
 <path d="M4590 1660 c0 -7 3 -10 7 -7 3 4 3 10 0 14 -4 3 -7 0 -7 -7z"/>
 <path d="M4680 1660 c0 -7 3 -10 7 -7 3 4 3 10 0 14 -4 3 -7 0 -7 -7z"/>
 <path d="M4778 1645 c-3 -14 -1 -25 3 -25 5 0 9 4 9 9 0 5 3 16 6 25 3 9 2 16 -4 16 -5 0 -12 -11 -14 -25z"/>
 <path d="M4847 1651 c3 -13 -1 -21 -14 -24 -15 -4 -14 -5 5 -6 13 -1 22 5 22 14 0 8 5 15 10 15 6 0 10 5 10 10 0 6 -9 10 -19 10 -14 0 -18 -5 -14 -19z"/>
 <path d="M4370 1640 c-9 -6 -10 -10 -3 -10 6 0 15 5 18 10 8 12 4 12 -15 0z"/>
 <path d="M4651 1645 c0 -5 3 -16 8 -23 7 -11 9 -10 14 3 4 9 3 14 -2 10 -5 -3 -12 1 -14 7 -3 7 -6 9 -6 3z"/>
 <path d="M4921 1641 c-1 -8 -8 -11 -18 -7 -17 6 -17 5 0 -8 9 -7 17 -18 17 -25 0 -6 9 -2 20 9 23 23 27 38 6 21 -11 -10 -15 -8 -19 6 -3 10 -5 12 -6 4z"/>
 <path d="M3752 1620 c0 -14 2 -19 5 -12 2 6 2 18 0 25 -3 6 -5 1 -5 -13z"/>
 <path d="M4403 1632 c-8 -5 -8 -14 1 -37 l13 -30 -1 37 c-1 21 -1 38 -1 38 0 0 -5 -4 -12 -8z"/>
 <path d="M3880 1620 c0 -7 3 -10 7 -7 3 4 3 10 0 14 -4 3 -7 0 -7 -7z"/>
 <path d="M3900 1620 c0 -7 3 -10 7 -7 3 4 3 10 0 14 -4 3 -7 0 -7 -7z"/>
 <path d="M4211 1614 c0 -11 3 -14 6 -6 3 7 2 16 -1 19 -3 4 -6 -2 -5 -13z"/>
 <path d="M4583 1584 c9 -37 12 -42 20 -28 7 13 7 19 -1 22 -7 2 -12 15 -12 28 0 13 -4 24 -9 24 -4 0 -4 -20 2 -46z"/>
 <path d="M4605 1620 c3 -5 8 -10 11 -10 2 0 4 5 4 10 0 6 -5 10 -11 10 -5 0 -7 -4 -4 -10z"/>
 <path d="M4561 1594 c0 -11 3 -14 6 -6 3 7 2 16 -1 19 -3 4 -6 -2 -5 -13z"/>
 <path d="M3682 1580 c0 -14 2 -19 5 -12 2 6 2 18 0 25 -3 6 -5 1 -5 -13z"/>
 <path d="M4775 1590 c-3 -5 -1 -10 4 -10 6 0 11 5 11 10 0 6 -2 10 -4 10 -3 0 -8 -4 -11 -10z"/>
 <path d="M4480 1569 c0 -5 5 -7 10 -4 6 3 10 8 10 11 0 2 -4 4 -10 4 -5 0 -10 -5 -10 -11z"/>
 <path d="M4651 1573 c0 -6 -4 -20 -7 -30 -5 -14 -4 -15 5 -7 7 7 11 20 8 30 -3 11 -5 14 -6 7z"/>
 <path d="M3725 1559 c-9 -14 -2 -20 14 -10 8 6 9 11 3 15 -6 3 -14 1 -17 -5z"/>
 <path d="M4847 1557 c-7 -20 17 -24 29 -5 4 6 3 8 -4 4 -5 -3 -12 -1 -14 6 -3 8 -7 6 -11 -5z"/>
 <path d="M4160 1550 c0 -7 3 -10 7 -7 3 4 3 10 0 14 -4 3 -7 0 -7 -7z"/>
 <path d="M3762 1510 c0 -14 2 -19 5 -12 2 6 2 18 0 25 -3 6 -5 1 -5 -13z"/>
 <path d="M4500 1520 c0 -7 3 -10 7 -7 3 4 3 10 0 14 -4 3 -7 0 -7 -7z"/>
 <path d="M4592 1500 c0 -14 2 -19 5 -12 2 6 2 18 0 25 -3 6 -5 1 -5 -13z"/>
 <path d="M4460 1500 c0 -7 3 -10 7 -7 3 4 3 10 0 14 -4 3 -7 0 -7 -7z"/>
 <path d="M3682 1480 c0 -14 2 -19 5 -12 2 6 2 18 0 25 -3 6 -5 1 -5 -13z"/>
 <path d="M4522 1480 c0 -14 2 -19 5 -12 2 6 2 18 0 25 -3 6 -5 1 -5 -13z"/>
 <path d="M4810 1470 c0 -7 3 -10 7 -7 3 4 3 10 0 14 -4 3 -7 0 -7 -7z"/>
 <path d="M4851 1435 c0 -31 2 -36 9 -23 6 10 7 25 1 40 -9 20 -10 18 -10 -17z"/>
 <path d="M4580 1420 c0 -7 3 -10 7 -7 3 4 3 10 0 14 -4 3 -7 0 -7 -7z"/>
 <path d="M4787 1419 c7 -7 15 -10 18 -7 3 3 -2 9 -12 12 -14 6 -15 5 -6 -5z"/>
 <path d="M4940 1370 c0 -7 3 -10 7 -7 3 4 3 10 0 14 -4 3 -7 0 -7 -7z"/>
 </g>
<g id="layer106" fill="#3a9387" stroke="none">
 <path d="M1595 4756 c-236 -77 -553 -181 -702 -229 l-273 -89 0 -269 0 -268 -37 -10 c-109 -29 -172 -172 -128 -288 22 -57 73 -141 126 -203 l39 -46 0 -497 c0 -297 4 -497 9 -497 5 0 31 5 58 11 45 10 55 8 165 -33 l117 -44 188 48 c103 26 193 48 198 48 6 0 11 -56 12 -143 3 -149 25 -400 48 -527 10 -57 32 -114 91 -234 72 -148 83 -165 159 -240 79 -79 179 -144 255 -166 28 -8 30 -7 41 33 43 165 251 340 571 482 49 21 88 42 88 46 0 5 -13 15 -30 24 -23 12 -61 56 -48 55 2 0 21 -7 43 -15 103 -37 222 -7 300 74 48 51 60 52 40 4 -8 -20 -14 -38 -12 -40 2 -2 31 4 63 12 138 37 244 65 248 65 2 0 20 58 41 129 l39 129 33 -5 c28 -5 38 0 71 33 32 32 40 49 45 89 3 28 2 70 -3 95 -4 25 -7 46 -5 48 1 2 44 -8 96 -21 l93 -23 120 44 c110 40 124 42 163 33 23 -6 47 -11 52 -11 8 0 11 153 11 491 l0 491 38 47 c101 121 144 209 145 291 1 102 -56 185 -143 211 l-40 12 0 268 0 268 -137 45 c-76 24 -390 126 -698 226 -308 101 -566 185 -572 187 -10 4 -13 -32 -13 -159 l0 -164 -35 -34 c-132 -128 -270 -476 -335 -844 -32 -180 -50 -651 -32 -858 l8 -88 -58 0 -58 0 0 1075 c0 854 -3 1075 -12 1074 -7 -1 -206 -65 -443 -143z m382 -2663 c38 -91 -29 -210 -97 -173 -21 11 -21 12 -4 31 14 16 15 23 5 45 -9 21 -17 25 -36 21 -22 -4 -25 -1 -25 25 0 16 7 42 15 58 14 28 20 30 71 30 54 0 55 -1 71 -37z m772 19 c5 -10 11 -36 13 -58 3 -33 0 -39 -15 -36 -41 7 -66 -56 -30 -76 14 -9 14 -11 -6 -22 -56 -30 -111 27 -111 115 0 75 18 95 85 95 42 0 56 -4 64 -18z m-873 -278 l49 -14 -44 4 c-35 4 -51 12 -80 43 -29 30 -30 32 -5 10 18 -16 54 -35 80 -43z m918 35 c-28 -31 -68 -49 -106 -48 -29 1 -28 2 14 11 28 6 59 21 75 37 33 31 45 31 17 0z m-837 -35 c-3 -3 -12 -4 -19 -1 -8 3 -5 6 6 6 11 1 17 -2 13 -5z m690 -1 c-4 -3 -10 -3 -14 0 -3 4 0 7 7 7 7 0 10 -3 7 -7z m-847 -123 c38 -19 54 -22 115 -16 38 3 84 9 100 12 l30 7 -19 -22 c-11 -11 -43 -33 -73 -47 -45 -23 -61 -25 -107 -20 -87 11 -163 81 -191 175 -7 22 -1 19 46 -21 30 -25 74 -56 99 -68z"/>
 <path d="M1890 2026 c0 -9 7 -16 16 -16 17 0 14 22 -4 28 -7 2 -12 -3 -12 -12z"/>
 <path d="M2670 2020 c0 -13 5 -20 13 -17 6 2 12 10 12 17 0 7 -6 15 -12 18 -8 2 -13 -5 -13 -18z"/>
 </g>
<g id="layer107" fill="#3fa194" stroke="none">
 <path d="M1595 4756 c-236 -77 -553 -181 -702 -229 l-273 -89 0 -269 0 -268 -37 -10 c-109 -29 -172 -172 -128 -288 22 -57 73 -141 126 -203 l39 -46 0 -497 c0 -297 4 -497 9 -497 5 0 31 5 58 11 45 10 55 8 156 -30 59 -23 116 -41 128 -41 11 0 100 20 199 45 99 25 183 45 187 45 4 0 9 -64 10 -143 3 -149 25 -400 48 -527 10 -57 32 -114 91 -234 72 -148 83 -165 159 -240 79 -79 179 -144 255 -166 28 -8 30 -7 41 33 43 165 251 340 571 482 49 21 88 42 88 46 0 5 -13 15 -30 24 -23 12 -61 56 -48 55 2 0 21 -7 43 -15 103 -37 222 -7 300 74 48 51 60 52 40 4 -8 -20 -14 -38 -12 -40 2 -2 31 4 63 12 138 37 244 65 248 65 2 0 20 58 41 129 l39 129 33 -5 c28 -5 38 0 71 33 32 32 40 49 45 89 3 28 2 70 -3 95 -4 25 -7 46 -5 48 1 2 44 -8 96 -21 l93 -23 120 44 c110 40 124 42 163 33 23 -6 47 -11 52 -11 8 0 11 153 11 491 l0 491 38 47 c101 121 144 209 145 291 1 102 -56 185 -143 211 l-40 12 0 268 0 268 -342 111 c-189 61 -505 164 -703 229 l-360 117 -6 -180 c-4 -100 -7 -582 -8 -1073 l-1 -892 -252 -3 c-139 -2 -256 -2 -260 0 -5 2 -8 487 -8 1078 0 591 -3 1074 -7 1073 -5 -1 -201 -65 -438 -143z m-298 -2223 c-4 -3 -10 -3 -14 0 -3 4 0 7 7 7 7 0 10 -3 7 -7z m-150 -40 c-4 -3 -10 -3 -14 0 -3 4 0 7 7 7 7 0 10 -3 7 -7z m2360 -10 c-4 -3 -10 -3 -14 0 -3 4 0 7 7 7 7 0 10 -3 7 -7z m-1530 -390 c38 -91 -29 -210 -97 -173 -21 11 -21 12 -4 31 14 16 15 23 5 45 -9 21 -17 25 -36 21 -22 -4 -25 -1 -25 25 0 16 7 42 15 58 14 28 20 30 71 30 54 0 55 -1 71 -37z m772 19 c5 -10 11 -36 13 -58 3 -33 0 -39 -15 -36 -41 7 -66 -56 -30 -76 14 -9 14 -11 -6 -22 -56 -30 -111 27 -111 115 0 75 18 95 85 95 42 0 56 -4 64 -18z m-873 -278 l49 -14 -44 4 c-35 4 -51 12 -80 43 -29 30 -30 32 -5 10 18 -16 54 -35 80 -43z m918 35 c-28 -31 -68 -49 -106 -48 -29 1 -28 2 14 11 28 6 59 21 75 37 33 31 45 31 17 0z m-837 -35 c-3 -3 -12 -4 -19 -1 -8 3 -5 6 6 6 11 1 17 -2 13 -5z m690 -1 c-4 -3 -10 -3 -14 0 -3 4 0 7 7 7 7 0 10 -3 7 -7z m-847 -123 c38 -19 54 -22 115 -16 38 3 84 9 100 12 l30 7 -19 -22 c-11 -11 -43 -33 -73 -47 -45 -23 -61 -25 -107 -20 -87 11 -163 81 -191 175 -7 22 -1 19 46 -21 30 -25 74 -56 99 -68z"/>
 <path d="M1896 2033 c-11 -11 -6 -23 9 -23 8 0 15 4 15 9 0 13 -16 22 -24 14z"/>
 <path d="M2670 2026 c0 -9 7 -16 16 -16 17 0 14 22 -4 28 -7 2 -12 -3 -12 -12z"/>
 </g>
<g id="layer108" fill="#54c4b5" stroke="none">
 <path d="M1885 4379 c-203 -29 -420 -128 -568 -259 -59 -53 -152 -166 -202 -247 -21 -35 -39 -63 -40 -63 -1 0 -19 7 -40 16 -73 30 -231 66 -315 71 -111 7 -159 -7 -214 -60 -37 -36 -45 -51 -55 -105 -10 -53 -10 -71 3 -116 20 -68 145 -256 171 -256 3 0 5 33 5 74 0 85 11 101 71 100 42 -2 150 -57 187 -97 l23 -24 -20 -79 c-11 -44 -27 -131 -37 -194 -23 -159 -16 -442 15 -590 12 -57 24 -107 26 -111 3 -3 -34 -16 -82 -29 -99 -26 -104 -20 67 -80 l96 -34 187 47 c102 26 190 47 194 47 5 0 9 -64 10 -143 3 -149 25 -400 48 -527 10 -57 32 -114 91 -234 72 -148 83 -165 159 -240 79 -79 179 -144 255 -166 28 -8 30 -7 41 33 43 165 251 340 572 482 48 21 87 42 87 46 0 5 -13 15 -30 24 -23 12 -61 56 -48 55 2 0 21 -7 43 -15 103 -37 222 -7 300 74 48 51 60 52 40 4 -8 -20 -14 -38 -12 -40 2 -2 31 4 63 12 138 37 244 65 248 65 2 0 20 58 41 129 l39 129 33 -5 c28 -5 38 0 71 33 32 32 40 49 45 89 3 28 2 70 -3 95 -4 25 -7 46 -5 48 1 2 39 -6 83 -17 44 -12 88 -21 98 -21 21 0 246 81 240 87 -2 3 -37 13 -76 23 -39 10 -74 21 -76 23 -3 3 4 50 16 105 53 264 45 562 -25 821 -8 30 -12 58 -10 62 3 3 36 28 74 54 54 37 81 49 120 53 73 7 81 -4 81 -100 0 -44 4 -78 9 -76 18 6 89 101 132 176 42 74 44 80 44 159 0 74 -3 85 -30 124 -16 23 -47 51 -67 62 -83 42 -239 32 -424 -29 -58 -19 -107 -34 -108 -32 -133 202 -195 276 -309 361 -85 64 -224 136 -321 166 -77 24 -230 51 -288 51 l-38 0 -2 -820 -3 -820 -262 -3 -263 -3 0 823 0 823 -47 -1 c-27 -1 -75 -5 -108 -10z m-850 -639 c11 -19 -25 -22 -62 -7 l-38 16 47 0 c26 1 50 -4 53 -9z m2621 3 c-4 -4 -25 -13 -46 -19 -31 -9 -40 -9 -44 1 -7 20 3 25 52 25 25 0 42 -3 38 -7z m-2681 -113 c8 -13 -5 -13 -25 0 -13 8 -13 10 2 10 9 0 20 -4 23 -10z m2665 -4 c0 -3 -4 -8 -10 -11 -5 -3 -10 -1 -10 4 0 6 5 11 10 11 6 0 10 -2 10 -4z m-2233 -1063 c-4 -3 -10 -3 -14 0 -3 4 0 7 7 7 7 0 10 -3 7 -7z m-40 -10 c-4 -3 -10 -3 -14 0 -3 4 0 7 7 7 7 0 10 -3 7 -7z m1880 0 c-4 -3 -10 -3 -14 0 -3 4 0 7 7 7 7 0 10 -3 7 -7z m-1920 -10 c-4 -3 -10 -3 -14 0 -3 4 0 7 7 7 7 0 10 -3 7 -7z m1960 0 c-4 -3 -10 -3 -14 0 -3 4 0 7 7 7 7 0 10 -3 7 -7z m-1990 -10 c-4 -3 -10 -3 -14 0 -3 4 0 7 7 7 7 0 10 -3 7 -7z m2030 0 c-4 -3 -10 -3 -14 0 -3 4 0 7 7 7 7 0 10 -3 7 -7z m-2070 -10 c-4 -3 -10 -3 -14 0 -3 4 0 7 7 7 7 0 10 -3 7 -7z m-40 -10 c-4 -3 -10 -3 -14 0 -3 4 0 7 7 7 7 0 10 -3 7 -7z m2180 0 c-4 -3 -10 -3 -14 0 -3 4 0 7 7 7 7 0 10 -3 7 -7z m-2220 -10 c-4 -3 -10 -3 -14 0 -3 4 0 7 7 7 7 0 10 -3 7 -7z m2260 0 c-4 -3 -10 -3 -14 0 -3 4 0 7 7 7 7 0 10 -3 7 -7z m-2290 -10 c-4 -3 -10 -3 -14 0 -3 4 0 7 7 7 7 0 10 -3 7 -7z m2330 0 c-4 -3 -10 -3 -14 0 -3 4 0 7 7 7 7 0 10 -3 7 -7z m-2370 -10 c-4 -3 -10 -3 -14 0 -3 4 0 7 7 7 7 0 10 -3 7 -7z m2400 0 c-4 -3 -10 -3 -14 0 -3 4 0 7 7 7 7 0 10 -3 7 -7z m-2440 -10 c-4 -3 -10 -3 -14 0 -3 4 0 7 7 7 7 0 10 -3 7 -7z m2480 0 c-4 -3 -10 -3 -14 0 -3 4 0 7 7 7 7 0 10 -3 7 -7z m-2520 -10 c-4 -3 -10 -3 -14 0 -3 4 0 7 7 7 7 0 10 -3 7 -7z m2560 0 c-4 -3 -10 -3 -14 0 -3 4 0 7 7 7 7 0 10 -3 7 -7z m-2590 -10 c-4 -3 -10 -3 -14 0 -3 4 0 7 7 7 7 0 10 -3 7 -7z m980 -360 c38 -91 -29 -210 -97 -173 -21 11 -21 12 -4 31 14 16 15 23 5 45 -9 21 -17 25 -36 21 -22 -4 -25 -1 -25 25 0 16 7 42 15 58 14 28 20 30 71 30 54 0 55 -1 71 -37z m772 19 c5 -10 11 -36 13 -58 3 -33 0 -39 -15 -36 -41 7 -66 -56 -30 -76 14 -9 14 -11 -6 -22 -56 -30 -111 27 -111 115 0 75 18 95 85 95 42 0 56 -4 64 -18z m-873 -278 l49 -14 -44 4 c-35 4 -51 12 -80 43 -29 30 -30 32 -5 10 18 -16 54 -35 80 -43z m918 35 c-28 -31 -68 -49 -106 -48 -29 1 -28 2 14 11 28 6 59 21 75 37 33 31 45 31 17 0z m-837 -35 c-3 -3 -12 -4 -19 -1 -8 3 -5 6 6 6 11 1 17 -2 13 -5z m690 -1 c-4 -3 -10 -3 -14 0 -3 4 0 7 7 7 7 0 10 -3 7 -7z m-847 -123 c38 -19 54 -22 115 -16 38 3 84 9 100 12 l30 7 -19 -22 c-11 -11 -43 -33 -73 -47 -45 -23 -61 -25 -107 -20 -87 11 -163 81 -191 175 -7 22 -1 19 46 -21 30 -25 74 -56 99 -68z"/>
 <path d="M1896 2033 c-11 -11 -6 -23 9 -23 8 0 15 4 15 9 0 13 -16 22 -24 14z"/>
 <path d="M2670 2026 c0 -9 7 -16 16 -16 17 0 14 22 -4 28 -7 2 -12 -3 -12 -12z"/>
 </g>
<g id="layer109" fill="#f9b68e" stroke="none">
 <path d="M585 3888 c-105 -37 -162 -151 -132 -265 17 -64 67 -148 129 -216 l47 -52 1 77 c0 68 3 79 22 92 12 9 34 16 48 16 58 -1 212 -107 286 -197 24 -30 43 -43 60 -43 59 0 31 78 -66 179 -32 34 -53 58 -46 55 6 -4 56 -35 112 -70 97 -61 136 -76 149 -54 18 29 -82 124 -207 198 -40 23 -69 42 -66 42 14 0 160 -61 228 -95 78 -39 88 -41 115 -21 18 13 18 15 2 40 -26 39 -97 80 -221 128 l-109 43 45 3 c29 2 72 -6 117 -21 71 -24 101 -21 101 8 0 30 -196 108 -363 144 -103 22 -203 26 -252 9z"/>
 <path d="M3835 3894 c-11 -2 -51 -12 -90 -20 -118 -27 -322 -104 -337 -128 -4 -6 0 -18 8 -27 13 -15 20 -14 82 7 64 22 177 33 157 16 -6 -5 -39 -19 -75 -32 -192 -68 -304 -163 -217 -185 17 -5 41 3 78 24 53 29 180 82 229 96 14 3 3 -7 -25 -22 -138 -80 -240 -166 -233 -200 6 -33 42 -25 133 33 130 81 135 83 80 23 -64 -68 -97 -122 -93 -151 6 -44 37 -32 121 49 156 149 247 189 310 135 13 -12 17 -31 17 -85 l0 -70 26 24 c38 36 114 153 136 212 41 106 9 219 -76 271 -41 26 -59 30 -129 32 -45 2 -91 1 -102 -2z"/>
 <path d="M1730 2654 c-168 -46 -458 -124 -645 -174 -187 -51 -341 -93 -343 -95 -2 -1 50 -22 114 -46 l118 -43 190 47 c105 26 193 47 196 47 3 0 6 -64 7 -143 3 -149 25 -400 48 -527 10 -57 32 -114 91 -234 72 -148 83 -165 159 -240 79 -79 179 -144 255 -166 28 -8 30 -7 41 33 43 165 251 340 572 482 48 21 87 42 87 46 0 5 -13 15 -30 24 -23 12 -61 56 -48 55 2 0 21 -7 43 -15 103 -37 222 -7 300 74 48 51 60 52 40 4 -8 -20 -14 -38 -12 -40 2 -2 31 4 63 12 138 37 244 65 248 65 2 0 20 58 41 129 l39 129 33 -5 c28 -5 38 0 71 33 32 32 40 49 45 89 3 28 2 70 -3 95 -4 25 -7 46 -5 48 1 2 42 -7 91 -19 l88 -22 66 22 c116 41 171 63 168 67 -2 2 -148 42 -324 89 -175 47 -469 126 -652 176 l-334 89 -256 -1 -257 -1 -305 -84z m247 -561 c38 -91 -29 -210 -97 -173 -21 11 -21 12 -4 31 14 16 15 23 5 45 -9 21 -17 25 -36 21 -22 -4 -25 -1 -25 25 0 16 7 42 15 58 14 28 20 30 71 30 54 0 55 -1 71 -37z m772 19 c5 -10 11 -36 13 -58 3 -33 0 -39 -15 -36 -41 7 -66 -56 -30 -76 14 -9 14 -11 -6 -22 -56 -30 -111 27 -111 115 0 75 18 95 85 95 42 0 56 -4 64 -18z m-873 -278 l49 -14 -44 4 c-35 4 -51 12 -80 43 -29 30 -30 32 -5 10 18 -16 54 -35 80 -43z m918 35 c-28 -31 -68 -49 -106 -48 -29 1 -28 2 14 11 28 6 59 21 75 37 33 31 45 31 17 0z m-837 -35 c-3 -3 -12 -4 -19 -1 -8 3 -5 6 6 6 11 1 17 -2 13 -5z m690 -1 c-4 -3 -10 -3 -14 0 -3 4 0 7 7 7 7 0 10 -3 7 -7z m-847 -123 c38 -19 54 -22 115 -16 38 3 84 9 100 12 l30 7 -19 -22 c-11 -11 -43 -33 -73 -47 -45 -23 -61 -25 -107 -20 -87 11 -163 81 -191 175 -7 22 -1 19 46 -21 30 -25 74 -56 99 -68z"/>
 <path d="M1896 2033 c-11 -11 -6 -23 9 -23 8 0 15 4 15 9 0 13 -16 22 -24 14z"/>
 <path d="M2670 2026 c0 -9 7 -16 16 -16 17 0 14 22 -4 28 -7 2 -12 -3 -12 -12z"/>
 </g>
<g id="layer110" fill="#e9cc88" stroke="none">
 <path d="M1043 3743 c4 -3 10 -3 14 0 3 4 0 7 -7 7 -7 0 -10 -3 -7 -7z"/>
 <path d="M3483 3723 c4 -3 10 -3 14 0 3 4 0 7 -7 7 -7 0 -10 -3 -7 -7z"/>
 <path d="M993 3623 c4 -3 10 -3 14 0 3 4 0 7 -7 7 -7 0 -10 -3 -7 -7z"/>
 <path d="M3384 3618 c-4 -7 -3 -8 4 -4 12 7 16 16 8 16 -3 0 -8 -5 -12 -12z"/>
 <path d="M1225 3610 c3 -5 8 -10 11 -10 3 0 2 5 -1 10 -3 6 -8 10 -11 10 -3 0 -2 -4 1 -10z"/>
 <path d="M1025 3580 c3 -5 8 -10 11 -10 3 0 2 5 -1 10 -3 6 -8 10 -11 10 -3 0 -2 -4 1 -10z"/>
 <path d="M1266 3543 c-6 -14 -5 -15 5 -6 7 7 10 15 7 18 -3 3 -9 -2 -12 -12z"/>
 <path d="M3524 3548 c-4 -7 -3 -8 4 -4 7 4 12 9 12 12 0 8 -9 4 -16 -8z"/>
 <path d="M1095 3530 c3 -5 8 -10 11 -10 3 0 2 5 -1 10 -3 6 -8 10 -11 10 -3 0 -2 -4 1 -10z"/>
 <path d="M3444 3478 l-29 -33 33 29 c17 17 32 31 32 33 0 8 -8 1 -36 -29z"/>
 <path d="M3594 3448 l-19 -23 23 19 c12 11 22 21 22 23 0 8 -8 2 -26 -19z"/>
 <path d="M1025 3420 c3 -5 8 -10 11 -10 3 0 2 5 -1 10 -3 6 -8 10 -11 10 -3 0 -2 -4 1 -10z"/>
 <path d="M1115 3420 c3 -5 8 -10 11 -10 3 0 2 5 -1 10 -3 6 -8 10 -11 10 -3 0 -2 -4 1 -10z"/>
 <path d="M1184 3408 c-4 -7 -3 -8 4 -4 7 4 12 9 12 12 0 8 -9 4 -16 -8z"/>
 <path d="M1068 3327 c-3 -19 -2 -25 4 -19 6 6 8 18 6 28 -3 14 -5 12 -10 -9z"/>
 <path d="M1005 3320 c10 -11 20 -20 23 -20 3 0 -3 9 -13 20 -10 11 -20 20 -23 20 -3 0 3 -9 13 -20z"/>
 <path d="M1730 2654 c-168 -46 -458 -124 -645 -174 -187 -51 -341 -93 -343 -95 -3 -3 219 -85 233 -85 6 -1 306 72 667 162 l658 162 482 -118 c266 -65 499 -126 520 -136 20 -10 38 -16 41 -13 3 3 69 -9 146 -27 l140 -33 63 23 c138 49 169 62 166 66 -2 2 -148 42 -324 89 -175 47 -469 126 -652 176 l-334 89 -256 -1 -257 -1 -305 -84z"/>
 <path d="M1896 2033 c-11 -11 -6 -23 9 -23 8 0 15 4 15 9 0 13 -16 22 -24 14z"/>
 <path d="M2670 2026 c0 -9 7 -16 16 -16 17 0 14 22 -4 28 -7 2 -12 -3 -12 -12z"/>
 <path d="M1820 2006 c-20 -25 -8 -61 21 -64 36 -4 55 21 41 53 -13 28 -43 33 -62 11z"/>
 <path d="M2710 2006 c-19 -23 -8 -61 18 -64 46 -7 72 47 33 68 -26 14 -36 13 -51 -4z"/>
 </g>
<g id="layer111" fill="#fcfbfa" stroke="none">
 <path d="M2670 2026 c0 -9 7 -16 16 -16 17 0 14 22 -4 28 -7 2 -12 -3 -12 -12z"/>
 <path d="M1890 2020 c0 -5 7 -10 15 -10 8 0 15 5 15 10 0 6 -7 10 -15 10 -8 0 -15 -4 -15 -10z"/>
 <path d="M1820 2006 c-20 -25 -8 -61 21 -64 36 -4 55 21 41 53 -13 28 -43 33 -62 11z"/>
 <path d="M2710 2006 c-19 -23 -8 -61 18 -64 46 -7 72 47 33 68 -26 14 -36 13 -51 -4z"/>
 </g>

</svg>